<svg width="237" height="183" viewBox="0 0 237 183" fill="none" xmlns="http://www.w3.org/2000/svg">
<g clip-path="url(#clip0_105_430)">
<path d="M190.633 48.7703C183.654 48.4262 176.666 48.7129 169.697 49.1211C167.514 49.3067 165.334 49.5867 163.197 50.0759C155.665 51.7897 148.107 53.3753 140.562 55.0351C123.457 59.053 106.171 62.2445 89.1731 66.7449C86.734 67.3521 84.3122 68.0235 81.939 68.8703C79.1564 69.7913 76.1884 70.665 73.9753 72.7364C72.1882 74.4536 71.6254 76.9906 71.4382 79.4027C68.7943 79.7805 66.0349 80.489 63.9431 82.2905C62.4237 83.6096 61.9065 85.6979 61.8415 87.6681C61.2361 88.0021 60.522 88.3462 60.3852 89.1221C59.838 92.3169 59.9525 95.5859 60.2668 98.8044C60.4337 99.6748 60.5424 101.001 61.6087 101.163C63.2358 101.51 64.9443 101.429 66.5617 101.072C67.2817 100.916 68.0996 100.387 68.087 99.5398C68.4013 96.4024 68.28 93.2379 68.0443 90.1004C68.0443 88.9264 66.9246 88.4035 66.1911 87.7322C66.1135 86.99 66.2901 86.1229 66.9964 85.7653C68.4236 84.8713 70.0274 84.3113 71.6254 83.8491C71.1374 88.5081 70.3389 93.1333 70.074 97.8227C69.4482 103.325 69.1047 108.861 68.6924 114.387C68.5255 116.044 67.7532 117.535 67.2225 119.087C66.8557 120.065 67.3176 121.08 67.3273 122.072C67.0459 123.651 66.8392 125.25 66.8072 126.859C66.8237 132.814 67.0003 138.768 66.781 144.719C66.715 146.659 66.683 148.599 66.8072 150.535C66.2998 150.94 65.5498 151.298 65.642 152.097C65.674 153.862 65.5333 155.704 66.0999 157.397C66.6238 158.855 67.9036 159.924 69.3211 160.376C73.2418 161.54 77.278 162.184 81.2812 162.964C94.6618 165.629 108.082 168.082 121.552 170.227C124.589 170.74 127.643 171.337 130.733 171.266C132.428 171.226 134.035 170.629 135.577 169.954C136.51 169.455 137.577 169.967 138.543 169.64C140.549 168.976 142.363 167.832 144.097 166.624C146.382 165.039 148.863 163.787 151.279 162.437C153.259 163.773 155.613 164.357 157.91 164.779C160.103 165.035 162.578 165.393 164.499 164.006C165.867 163.153 166.813 161.753 167.416 160.255C168.944 156.416 169.802 152.344 170.519 148.275C171.802 148.113 172.62 147.152 173.412 146.217C177.458 143.329 181.703 140.745 185.981 138.235C188.499 136.751 191.127 135.422 193.425 133.58C194.073 135.064 195.716 135.604 197.159 135.84C198.904 136.103 200.672 136.262 202.433 136.208C204.167 135.965 205.323 134.396 206.154 132.949C207.621 130.253 208.416 127.187 208.576 124.107C209.637 124.066 210.625 123.668 211.48 123.034C214.926 120.628 218.743 118.776 221.856 115.888C222.432 113.999 222.488 111.941 222.399 109.968C222.383 108.716 221.545 107.782 220.943 106.783C220.746 106.071 220.844 105.309 220.835 104.577C221.024 99.4015 220.756 94.223 220.818 89.0445C221.146 82.1623 220.645 75.2734 219.974 68.4283C219.666 64.7781 220.357 60.9423 218.89 57.481C217.804 54.7483 215.165 53.1222 212.55 52.2518C205.49 49.833 198.004 49.2831 190.633 48.7703ZM201.768 51.2566C205.699 51.9954 209.676 52.6769 213.424 54.1546C214.694 54.6336 215.66 55.6491 216.517 56.6949C210.635 57.7913 204.94 59.7008 199.153 61.2054C193.11 62.9226 187.032 64.4947 180.993 66.222C173.674 68.0842 166.473 70.385 159.223 72.507C153.658 74.15 148.094 75.7828 142.543 77.4595C141.561 77.7429 140.595 78.1545 139.567 78.2422C138.448 77.1592 137.499 75.8537 136.117 75.0878C131.194 72.173 125.548 70.9214 119.98 70.1151C111.168 68.931 102.263 68.4587 93.3752 68.6442C91.4678 68.6307 89.5787 69.0288 87.6702 68.958C89.016 68.3035 90.5179 68.1382 91.9325 67.7199C104.007 64.4677 116.252 61.9712 128.445 59.242C139.495 57.0019 150.424 54.1377 161.485 51.9516C165.589 50.845 169.835 50.4368 174.064 50.2648C183.297 49.5226 192.597 49.9881 201.768 51.2566ZM217.195 57.2853C218.18 59.6266 218.425 62.2074 218.334 64.7342C218.625 67.9965 218.897 71.2588 219.231 74.5143C219.623 79.7131 219.676 84.9523 219.365 90.151C214.53 91.1665 210.18 93.6967 205.516 95.2621C205.218 85.9543 205.205 76.6397 205.369 67.3319C205.418 66.8765 205.431 66.2625 205.951 66.1073C207.909 65.4966 209.896 64.9839 211.846 64.3462C213.057 63.9853 214.249 63.4387 215.539 63.4792C215.83 65.1289 215.774 66.809 215.807 68.4789C215.885 71.2014 215.928 73.9374 215.696 76.6566C215.237 75.9279 215.395 75.044 215.368 74.2242C215.421 71.279 215.165 68.3372 215.218 65.3921C215.421 64.8995 215.656 64.3665 215.388 63.8402C214.982 63.7086 214.557 63.7862 214.157 63.9009C212.026 64.5284 209.922 65.2537 207.788 65.8779C207.189 66.1039 206.406 65.8104 205.948 66.3637C205.758 67.0451 205.775 67.7603 205.768 68.4587C205.83 77.2436 205.634 86.0386 206.164 94.81C209.224 93.582 212.187 92.101 215.228 90.8089C216.236 90.4108 217.316 89.6248 217.345 88.4001C217.597 80.742 217.408 73.0805 217.411 65.4191C217.237 64.1067 216.93 62.5481 215.833 61.7249C214.841 61.5765 213.846 61.9645 212.884 62.1905C208.285 63.4758 203.745 64.9704 199.123 66.1646C191.019 68.8129 182.692 70.6684 174.61 73.3977C168.768 75.017 162.994 76.886 157.269 78.9034C154.473 79.7266 151.649 80.4485 148.886 81.3931C145.027 82.4794 141.295 84.0111 137.4 84.9692C136.759 83.6029 136.363 82.0375 135.184 81.0322C135.646 82.3512 135.97 83.7243 135.882 85.1379C134.818 85.2694 133.747 85.4314 132.671 85.347C123.522 84.8815 114.393 84.1055 105.261 83.3768C97.4929 82.7527 89.7553 81.7811 81.972 81.3999C79.072 81.1604 76.106 81.2008 73.3107 80.2663C73.3301 78.2186 73.5232 75.9819 74.9048 74.3794C76.921 72.0651 79.9161 71.0294 82.8064 70.4761C86.2925 69.6462 89.8863 69.9971 93.4276 69.9431C97.3619 69.8925 101.297 70.0207 105.222 70.2906C113.885 70.7932 122.691 71.1137 131.054 73.7316C134.252 74.6257 137.397 76.299 139.335 79.1598C144.166 78.1815 148.84 76.525 153.59 75.1992C162.895 72.5509 172.106 69.5619 181.474 67.143C189.363 64.7646 197.359 62.7876 205.287 60.5475C209.251 59.4343 213.231 58.3884 217.195 57.2853ZM214.566 65.3651C214.573 69.1098 214.593 72.8579 214.704 76.6026C212.023 77.4021 209.378 78.3198 206.743 79.2644C206.832 75.3847 206.652 71.5017 206.77 67.6187C209.339 66.7685 211.935 65.9858 214.566 65.3651ZM203.506 67.315C204 69.9161 203.784 72.5846 203.86 75.216C203.814 81.5416 204.099 87.857 204.125 94.1792C202.406 94.7594 200.681 95.3228 198.986 95.9739C196.793 96.8544 194.682 97.9441 192.479 98.801C193.251 98.0285 194.282 97.6675 195.241 97.2188C197.978 96.0211 200.727 94.6481 203.676 94.1454C203.421 85.3032 203.156 76.4508 203.352 67.6085C202.02 67.6456 200.776 68.1888 199.496 68.5093C196.832 69.3291 194.096 69.9599 191.546 71.1238C191.048 75.1823 191.232 79.2812 191.114 83.36C191.025 79.4128 191.032 75.4623 191.173 71.5186C191.153 70.9046 191.762 70.6347 192.233 70.4694C195.461 69.2852 198.796 68.4654 202.076 67.4668C202.537 67.3589 203.035 67.1261 203.506 67.315ZM202.151 69.2177C202.095 73.1817 202.148 77.1457 202.112 81.1097C198.662 81.9599 195.418 83.4882 192.001 84.4395C191.994 80.4418 191.867 76.4305 192.093 72.4362C195.307 70.9518 198.786 70.2433 202.151 69.2177ZM189.821 70.7629C190.407 78.421 190.138 86.1162 189.929 93.7878C190.027 96.3349 189.732 98.9157 190.125 101.436C185.314 103.683 180.374 105.612 175.484 107.667C174.934 105.096 175.291 102.458 175.199 99.8536C175.121 92.5429 175.114 85.2323 175.216 77.9217C175.334 77.0918 175.144 76.0864 175.723 75.4117C176.843 74.7606 178.103 74.4165 179.333 74.069C182.472 73.2054 185.52 72.0077 188.692 71.2655C184.924 72.7432 181.009 73.789 177.173 75.0575C176.649 75.2633 176.162 75.5601 175.661 75.8199C175.628 81.0153 175.484 86.2107 175.533 91.406C175.762 96.5137 175.461 101.632 175.776 106.736C178.937 106.29 181.743 104.607 184.721 103.527C186.332 102.711 188.155 102.283 189.608 101.183C189.284 97.6034 189.212 94.0003 189.363 90.4074C189.451 83.9638 189.428 77.5168 189.199 71.0766L189.821 70.7629ZM187.949 73.0333C188.207 81.2987 187.87 89.564 187.811 97.8294C187.716 98.3624 188.011 99.5938 187.147 99.4083C187.055 95.9132 187.268 92.4181 187.242 88.9231C187.363 88.7814 187.598 88.5014 187.716 88.3597C187.091 83.3802 187.68 78.3366 187.471 73.3336C187.242 73.4516 186.78 73.6878 186.551 73.8092C186.58 77.952 186.453 82.0982 186.538 86.2444C183.013 87.0507 179.7 88.6127 176.322 89.9048C176.352 85.482 176.263 81.0457 176.535 76.633C180.273 75.2329 184.224 74.484 187.949 73.0333ZM173.808 84.6622C173.798 92.516 173.887 100.366 173.89 108.217C169.962 109.87 166.008 111.466 162.12 113.22C161.259 113.648 160.355 114.026 159.38 114.019C159.328 113.463 159.272 112.903 159.252 112.343C159.265 101.743 159.419 91.1395 159.413 80.5396C160.732 79.6085 162.313 79.2543 163.802 78.7246C167.082 77.6349 170.28 76.2416 173.671 75.5399C173.88 78.5762 173.726 81.6225 173.808 84.6622ZM215.712 88.0898C215.473 87.8975 214.854 87.9548 214.982 87.4994C215.057 84.453 215.093 81.3999 214.926 78.3569C215.116 78.2152 215.496 77.9352 215.686 77.7935C215.817 81.2211 215.8 84.6622 215.712 88.0898ZM214.393 87.8806C211.85 89.0344 209.27 90.1173 206.626 91.0113C206.606 87.8266 206.642 84.6453 206.56 81.464C209.038 80.1651 211.807 79.7131 214.39 78.7044C214.399 81.7609 214.357 84.8207 214.393 87.8806ZM158.097 80.1786C158.208 82.9214 158.162 85.6675 158.244 88.4103C158.081 98.4063 158.192 108.412 157.684 118.395C157.753 125.486 157.393 132.571 157.318 139.659C157.059 145.178 157.292 150.701 157.403 156.22C157.445 156.689 157.338 157.124 157.072 157.519C156.496 145.509 157.01 133.468 157.036 121.445C157.167 112.221 157.419 102.994 157.275 93.7676C157.112 89.8204 157.285 85.8699 157.138 81.9262C157.157 81.2211 157.756 80.742 158.097 80.1786ZM71.9427 80.8365C71.8835 81.0996 71.769 81.6225 71.7137 81.8857C69.7858 82.8235 67.5989 83.2891 65.8835 84.6453C64.859 85.4246 65.4547 86.8145 65.5663 87.8772C65.0821 87.9919 64.5941 88.1033 64.1061 88.2112C63.3764 86.6054 63.8315 84.6554 65.1248 83.5118C67.0226 81.8486 69.553 81.2852 71.9427 80.8365ZM156.14 81.8351C151.21 82.9551 146.503 84.9051 141.6 86.1263C140.49 86.7403 138.975 86.909 138.281 88.0965C138.022 88.3394 138.124 89.139 137.643 89.0074C137.469 88.0796 137.348 86.2815 138.559 86.0791C140.566 85.401 142.683 85.1682 144.683 84.4631C148.117 83.5016 151.505 82.3749 154.942 81.4269C155.501 81.2852 156.071 81.0659 156.65 81.2211C157.216 81.5247 156.405 81.8452 156.14 81.8351ZM76.9472 82.2365C75.6645 82.5773 74.4207 83.3768 73.8967 84.6824C73.2845 86.2883 73.1991 88.0425 73.0623 89.7462C72.944 97.4988 73.3398 105.258 73.0061 113.007C72.9605 114.256 72.6335 115.46 72.4365 116.688C74.5613 116.651 76.3912 115.423 78.3356 114.711C79.8472 114.154 81.3666 113.578 82.9083 113.136C85.4639 113.399 88.0176 112.953 90.5014 112.356C91.3892 112.134 92.2954 111.978 93.2084 112.059C89.6175 113.834 86.0402 115.649 82.6299 117.774C81.0319 118.557 79.6541 119.751 78.0571 120.517C75.8906 120.375 73.5232 120.176 71.704 118.827C70.2836 117.572 70.529 115.423 70.6008 113.696C71.4847 103.109 71.6904 92.4316 73.5698 81.9666C74.6991 82.0375 75.8178 82.2332 76.9472 82.2365ZM202.459 83.0158C202.452 85.8227 202.541 88.6295 202.573 91.4364C202.521 92.0099 202.776 92.7926 202.069 93.0827C201.876 89.7125 202.043 86.3321 201.853 82.9585C202.004 82.972 202.308 83.0024 202.459 83.0158ZM156.205 83.0361C156.081 89.7698 156.287 96.5036 156.208 103.237C156.09 121.225 155.855 139.22 156.185 157.208C156.251 157.853 155.495 158.079 155.095 158.413C150.951 160.835 146.647 162.964 142.602 165.568C142.588 164.92 142.592 164.276 142.602 163.635C143.799 163.338 144.824 162.613 145.888 162.009C147.776 160.923 149.623 159.759 151.547 158.74C152.487 158.193 153.541 157.859 154.388 157.154C154.149 155.95 154.179 154.719 154.163 153.497C154.041 133.252 154.568 113.014 154.748 92.7757C154.68 90.34 154.879 87.9008 154.667 85.4718C152.356 86.0251 150.179 87.0237 147.937 87.803C146.189 88.4946 144.395 89.0715 142.696 89.8879C143.223 99.722 142.932 109.573 143.092 119.414C143.164 121.337 142.971 123.277 143.299 125.183C146.556 124.302 149.442 122.406 152.418 120.838C152.235 122.605 152.251 124.387 152.231 126.164C152.218 136.198 152.14 146.227 152.143 156.26C148.902 157.782 146.061 160.069 142.746 161.439C142.399 153.511 142.696 145.566 142.497 137.631C142.415 131.896 142.7 126.164 142.487 120.429C142.51 113.682 142.405 106.935 142.454 100.188C142.349 95.8963 142.205 91.6085 142.061 87.3206C146.765 85.8598 151.433 84.254 156.205 83.0361ZM201.13 83.4241C201.221 86.6357 201.163 89.8474 201.172 93.0591C198.184 94.4153 195.074 95.4645 192.083 96.8072C192.2 93.4167 192.171 90.0195 192.057 86.629C195.061 85.5022 198.118 84.5373 201.13 83.4241ZM82.0729 83.7142C81.9128 93.0794 82.0535 102.448 82.0506 111.813C79.3301 112.65 76.758 113.885 74.1257 114.967C74.5051 109.077 74.1393 103.18 74.2732 97.2863C74.3518 94.1926 74.1752 91.0855 74.4954 88.0021C74.6623 86.2275 75.648 84.3754 77.3731 83.7952C78.8983 83.333 80.5186 83.6096 82.0729 83.7142ZM99.3888 84.8511C99.4247 88.9602 99.4732 93.0692 99.382 97.1783C97.8403 97.4684 96.3248 97.9272 94.8616 98.4974C94.5774 102.208 94.263 105.923 94.3513 109.651C90.9632 110.275 87.6014 111.179 84.1648 111.425C84.0338 105.326 84.1153 99.2227 84.0338 93.1198C83.9785 90.0094 84.1095 86.8854 83.8378 83.7817C89.0354 83.9436 94.2106 84.4429 99.3888 84.8511ZM118.805 86.2545C118.92 88.0122 118.867 89.7732 118.753 91.5309C112.779 93.0962 106.91 95.0462 101.067 97.067C100.979 93.0051 100.983 88.9467 100.845 84.8916C106.826 85.4212 112.819 85.8092 118.805 86.2545ZM137.459 86.1263C137.233 87.6816 136.991 89.2334 136.955 90.8089C137.103 90.5053 137.4 89.9014 137.548 89.5978L137.803 89.5168C137.541 91.6827 137.59 93.8924 137.116 96.0279C136.618 93.3459 137.26 90.4648 136.075 87.911C135.901 87.469 135.404 87.0068 135.826 86.5514C136.31 86.2208 136.909 86.2107 137.459 86.1263ZM128.641 86.6998C126.19 88.2652 123.499 89.3717 120.874 90.5896C120.799 89.1423 120.756 87.6951 120.785 86.2444C123.388 86.6492 126.023 86.5615 128.641 86.6998ZM191.166 86.4468C191.585 91.1766 191.258 95.9436 191.385 100.687C193.791 99.9379 196.024 98.7268 198.344 97.7552C200.269 96.8612 202.266 96.1291 204.164 95.171C204.288 95.2047 204.541 95.2722 204.665 95.3059C200.318 97.1783 196.033 99.2126 191.615 100.913C191.402 100.862 190.976 100.765 190.76 100.717C190.94 95.9638 190.724 91.18 191.166 86.4468ZM133.063 86.9832C133.996 87.297 134.936 87.8772 135.472 88.7341C135.963 91.4431 135.813 94.223 135.456 96.9388C135.335 94.9382 135.309 92.9275 135.057 90.9405C134.438 88.3698 131.741 87.0237 129.365 86.7808C130.599 86.8314 131.849 86.7471 133.063 86.9832ZM153.901 87.2093C154.097 88.7173 154.032 90.2421 154.032 91.7569C153.976 102.445 153.737 113.129 153.236 123.8C153.226 134.609 153.226 145.421 153.145 156.233C153.122 144.638 153.007 133.04 153.095 121.441C153.253 115.598 153.413 109.752 153.292 103.902C153.469 98.8415 153.203 93.7777 153.262 88.7139C153.207 88.1168 153.583 87.6546 153.901 87.2093ZM141.073 87.2734C141.099 90.9169 141.256 94.557 141.387 98.1971C141.079 98.214 140.467 98.2477 140.16 98.2646C140.245 95.6534 140.081 92.9107 141.017 90.4378C140.418 90.5626 139.832 90.7583 139.266 91.0012C139.384 92.5227 139.436 94.0712 139.093 95.5691C138.114 94.0341 138.605 92.0774 138.703 90.367C138.844 88.9264 140.094 88.1134 141.073 87.2734ZM62.0152 90.0633C62.4081 89.9925 63.1931 89.8508 63.586 89.7833C63.6714 90.6706 62.6303 90.5559 62.1685 90.1747C61.8871 90.2624 61.3312 90.4344 61.0498 90.5221C61.272 89.1423 63.033 89.0378 63.3832 87.6748C63.9334 88.7544 62.5517 89.365 62.0152 90.0633ZM133.61 91.099C134.062 94.331 133.469 97.6304 134.026 100.856C134.081 107.164 134.648 113.456 134.599 119.765C134.399 122.221 133.983 125.139 131.839 126.63C130.677 127.534 129.152 127.338 127.793 127.217C122.494 126.61 117.211 125.861 111.912 125.237C109.46 122.464 106.361 120.399 103.912 117.619C102.482 115.983 100.793 114.573 99.6177 112.714C99.2801 112.781 98.9366 112.845 98.5932 112.903C100.371 112.076 102.239 111.476 104.089 110.845C104.151 110.585 104.276 110.066 104.338 109.802C103.261 109.667 101.772 109.846 101.228 108.612C101.058 105.488 100.989 102.337 101.182 99.2126C104.498 98.1297 107.765 96.8915 111.077 95.7951C116.808 93.9734 122.468 91.8851 127.908 89.2672C128.998 88.8691 130.173 87.9649 131.355 88.5418C132.396 89.004 133.476 89.8508 133.61 91.099ZM215.597 88.7274C215.018 89.311 214.249 89.5944 213.519 89.9149C211.643 90.6908 209.784 91.5039 207.954 92.3844C207.545 92.6003 207.087 92.6678 206.639 92.7319C207.529 91.9998 208.648 91.7029 209.663 91.2137C211.65 90.4108 213.561 89.3954 215.597 88.7274ZM151.976 88.525C151.943 98.6256 152.009 108.73 151.829 118.83C149.42 120.291 147.001 121.813 144.359 122.787C143.885 113.017 144.186 103.22 144.078 93.4403C144.153 92.7217 143.852 91.6321 144.664 91.2711C147.017 90.1477 149.505 89.3414 151.976 88.525ZM66.9343 89.6214C66.3163 89.9081 65.674 90.1578 64.9967 90.2624C64.954 90.1747 64.8696 89.9959 64.827 89.9081C65.1733 89.0344 66.2998 89.2604 66.9343 89.6214ZM186.433 88.8691C186.07 90.1308 186.207 91.46 186.165 92.7622C186.217 94.972 185.991 97.1985 186.263 99.4015C184.898 99.8232 183.638 100.522 182.309 101.031C180.283 101.881 178.129 102.499 176.312 103.801C176.548 100.194 176.463 96.5778 176.411 92.968L176.545 92.796C179.73 91.207 183.242 90.4446 186.433 88.8691ZM66.4929 91.514C66.4308 93.997 66.4114 96.48 66.3095 98.9596C65.0423 99.5432 63.5889 99.7692 62.2607 99.2733C62.1782 96.8544 62.087 94.4389 62.0938 92.02C63.5792 92.0167 65.0365 91.767 66.4929 91.514ZM219.581 91.7232C219.493 97.0299 219.515 102.34 219.489 107.647C216.187 109.097 213.214 111.196 210.043 112.906C209.588 111.621 209.208 110.271 208.409 109.158C207.31 107.512 204.963 106.776 203.241 107.812C201.447 108.875 200.115 110.659 199.362 112.63C198.567 114.677 197.876 116.769 197.343 118.908C195.065 119.633 193.137 121.168 190.967 122.16C191.186 122.292 191.395 122.427 191.605 122.572C191.31 122.717 191.016 122.865 190.721 123.02C190.737 122.831 190.767 122.453 190.78 122.268C185.88 124.879 180.878 127.291 175.975 129.902C176.24 130.007 176.492 130.132 176.735 130.277C175.327 131.164 173.831 131.92 172.293 132.537C171.749 131.06 171.353 129.427 170.237 128.276C168.987 127.038 166.931 127.028 165.491 127.915C163.308 129.241 161.927 131.529 160.722 133.755C160.074 134.794 159.537 136.208 158.185 136.4C157.897 133.337 158.166 130.257 158.159 127.187C158.139 123.493 158.254 119.798 158.11 116.104C160.722 116.394 163.039 114.92 165.373 113.972C168.031 112.913 170.666 111.796 173.334 110.761C180.076 107.751 186.96 105.079 193.716 102.1C197.012 100.808 200.266 99.415 203.536 98.0588C208.815 95.7681 214.272 93.943 219.581 91.7232ZM138.782 97.4279C138.791 97.7282 138.808 98.3287 138.818 98.629C138.402 98.467 137.99 98.2916 137.58 98.1094C136.798 98.7639 135.718 98.6964 134.814 99.0945C134.936 98.4873 135.07 97.8834 135.181 97.2761C135.325 97.6506 135.479 98.0217 135.646 98.3861C136.163 98.3692 136.677 98.3321 137.191 98.2714C137.034 97.7687 136.847 97.2761 136.706 96.7667C137.309 97.212 137.846 97.7451 138.425 98.2174C138.222 97.7282 138.026 97.2356 137.832 96.7397C138.156 96.959 138.467 97.1952 138.782 97.4279ZM188.803 99.9109C188.361 100.397 187.805 100.761 187.196 100.984C183.723 102.279 180.342 103.828 176.865 105.103C177.579 104.357 178.568 104.044 179.474 103.639C182.561 102.337 185.674 101.088 188.803 99.9109ZM140.444 100.002C140.454 102.097 140.526 104.195 140.457 106.287C140.52 106.878 140.045 107.316 139.544 107.481C138.575 107.798 137.551 107.579 136.569 107.427C136.477 105.127 136.314 102.826 136.36 100.525C137.728 100.4 139.102 100.339 140.444 100.002ZM99.7817 99.9818C99.9156 103.062 99.8079 106.159 99.5033 109.222L99.1792 109.178C99.186 106.284 99.1491 103.386 99.2869 100.498C99.4111 100.37 99.6566 100.113 99.7817 99.9818ZM98.5311 100.343C98.7504 102.752 98.3603 105.167 98.4098 107.583C98.5379 109.627 97.7452 111.624 98.1517 113.665C99.3131 114.799 100.721 115.629 101.804 116.853C103.617 118.807 105.368 120.827 107.352 122.605C108.328 123.405 109.45 124.059 110.174 125.139C107.241 123.273 104.966 120.551 102.492 118.118C101.353 117.035 100.478 115.669 99.1365 114.819C99.3723 115.247 99.8438 116.104 100.08 116.533C99.7817 116.249 99.4897 115.953 99.2122 115.646L99.2869 115.453C98.9599 114.998 98.6194 114.549 98.2817 114.1C98.1711 114.225 97.9451 114.475 97.8306 114.6C97.9092 110.808 97.9024 107.012 98.0692 103.224C98.1255 102.252 98.0954 101.237 98.5311 100.343ZM96.74 109.067C96.7012 109.529 96.1152 109.479 95.8202 109.688C95.729 106.685 95.8008 103.632 96.416 100.687C96.6682 100.646 97.1757 100.569 97.4279 100.532C96.9797 103.352 96.9176 106.22 96.74 109.067ZM220.173 114.843C219.908 114.512 219.525 114.205 219.542 113.729C219.45 112.009 219.565 110.207 220.363 108.655C221.27 110.599 220.736 112.872 220.173 114.843ZM207.405 109.904C208.848 111.358 209.126 113.551 209.198 115.527C212.504 113.591 216.138 112.113 219.041 109.529C219.087 111.482 218.71 113.432 218.949 115.386C219.221 116.222 218.331 116.604 217.813 117.022C215.103 118.786 212.314 120.429 209.702 122.356C209.866 119.981 210.491 117.592 210.105 115.21C209.804 115.565 209.431 115.888 209.26 116.337C208.999 118.409 209.008 120.507 208.796 122.585C208.655 119.515 209.257 116.378 208.39 113.365C208.079 111.729 207.27 109.947 205.591 109.438C204.046 108.942 202.701 110.305 202.03 111.59C200.482 114.428 199.562 117.579 198.894 120.743C198.292 123.503 198.413 126.347 198.407 129.157C198.145 129.245 197.621 129.417 197.359 129.504C197.942 127.544 197.559 125.456 197.866 123.452C197.961 120.49 198.855 117.653 199.686 114.846C200.472 112.737 201.382 110.406 203.339 109.182C204.632 108.294 206.347 108.915 207.405 109.904ZM135.895 111.354C136.071 116.614 136.425 121.924 135.633 127.143C134.432 128.695 132.481 129.427 130.703 130.041C127.869 130.442 125.021 129.882 122.21 129.518C118.893 129.133 115.581 128.698 112.281 128.189C106.764 127.254 101.186 126.755 95.6601 125.861C88.8258 124.768 81.9623 123.877 75.0882 123.088C72.9275 122.791 70.6561 122.656 68.7118 121.536C68.607 120.045 68.8098 118.57 69.0688 117.11C69.4977 118.081 70.0148 119.07 70.8987 119.684C72.7548 121.067 75.1338 121.094 77.278 121.651C77.2615 121.826 77.2256 122.177 77.2062 122.352C78.2172 122.163 79.2816 122.109 80.2828 122.373C79.9355 122.673 79.5852 122.97 79.2321 123.267C79.5164 123.361 80.083 123.557 80.3643 123.651C80.8786 123.455 81.1861 122.946 81.5791 122.588C83.896 122.767 86.1945 123.132 88.4988 123.432C94.9994 124.424 101.546 125.021 108.063 125.861C113.067 126.856 118.174 127.106 123.211 127.868C125.384 128.118 127.558 128.523 129.754 128.459C132 128.408 134.17 126.856 134.896 124.646C135.813 122.106 136.366 119.373 135.963 116.661C135.94 113.965 135.603 111.28 135.623 108.588C136.055 109.445 135.829 110.433 135.895 111.354ZM141.132 166.354C140.674 166.665 140.212 166.965 139.734 167.255C139.541 166.398 139.482 165.521 139.485 164.647C139.282 146.302 139.338 127.959 139.325 109.614C139.937 109.357 140.539 109.077 141.125 108.763C141.181 127.959 140.899 147.158 141.132 166.354ZM138.749 109.499C138.598 116.516 138.549 123.533 138.51 130.554C138.575 142.854 138.376 155.161 138.85 167.457C138.395 167.721 137.934 167.974 137.459 168.203C137.053 165.97 137.554 163.564 136.716 161.422C136.454 161.449 135.927 161.5 135.665 161.523C135.944 162.552 136.445 163.534 136.422 164.634C136.445 165.818 136.608 167.403 135.463 168.112C133.446 169.293 131.106 169.991 128.775 169.799C125.375 169.519 122.032 168.77 118.658 168.284C110.446 167.046 102.253 165.669 94.0961 164.087C86.6495 162.643 79.1826 161.307 71.7729 159.671C70.4369 159.307 68.8719 159.057 67.9948 157.839C67.0488 156.132 66.9576 154.074 67.1216 152.158C69.1542 152.914 71.2752 153.312 73.399 153.666C80.2275 155.036 87.0386 156.5 93.906 157.637C101.467 159.003 109.08 160.052 116.635 161.452C121.496 162.211 126.402 163.348 131.342 162.728C133.178 162.502 135.391 162.296 136.523 160.575C136.553 149.328 136.507 138.08 136.602 126.832C136.821 121.148 136.651 115.457 136.769 109.772C137.413 109.583 138.081 109.512 138.749 109.499ZM96.253 110.98C95.5787 111.702 94.5667 111.803 93.6576 111.965C94.1679 111.01 95.2876 110.777 96.253 110.98ZM96.8875 111.752C96.8613 111.918 96.8128 112.245 96.7866 112.407C92.5835 113.615 88.7996 115.895 85.1078 118.226C83.6311 119.198 82.2301 120.325 80.5933 121.01C79.9093 121.259 79.3466 121.836 78.5675 121.755C80.8815 119.68 83.7553 118.489 86.3352 116.833C89.6806 114.775 93.3102 113.304 96.8875 111.752ZM96.8487 113.149C96.8487 114.06 96.8351 114.998 97.2707 115.824C97.1271 118.355 96.9438 120.888 96.8448 123.422C91.8539 122.693 86.8455 122.12 81.841 121.495C85.0128 119.1 88.4658 117.14 91.9451 115.261C93.5489 114.488 95.2216 113.871 96.8487 113.149ZM104.089 121.263C105.382 122.44 106.829 123.439 107.932 124.818C104.557 124.198 101.146 123.857 97.7384 123.513C97.686 120.777 98.5049 118.091 98.177 115.355C99.935 117.545 102.099 119.316 104.089 121.263ZM204.832 117.312C203.163 116.148 200.721 117.69 200.825 119.728C200.564 119.792 200.298 119.856 200.037 119.927C200.757 118.817 201.045 117.221 202.446 116.755C203.284 116.216 204.141 116.823 204.832 117.312ZM101.777 118.294C101.136 118.075 100.469 117.353 100.269 116.695C100.897 116.857 101.637 117.629 101.777 118.294ZM204.416 118.017C206.148 119.65 206.174 122.271 206.177 124.508C206.282 126.299 205.984 128.607 204.108 129.332C204.665 128.489 205.369 127.71 205.578 126.681C205.385 126.438 205.002 125.959 204.809 125.719C205.028 125.864 205.46 126.154 205.676 126.299C205.797 126.121 206.04 125.77 206.161 125.594C206.023 125.362 205.886 125.129 205.745 124.899L204.94 125.186C205.277 124.441 205.889 123.843 206.063 123.02C205.434 123.455 204.852 123.962 204.282 124.474C204.144 125.662 204.74 126.897 204.275 128.037C204.181 127.386 204.151 126.728 204.115 126.07C203.631 126.387 202.855 126.461 202.714 127.143C202.354 127.872 203.002 128.28 203.503 128.641C203.49 128.259 203.457 127.494 203.441 127.109C203.64 127.659 203.84 128.209 204.04 128.755C203.28 128.958 202.498 128.985 201.928 128.347C202.128 127.861 202.328 127.376 202.524 126.886C202.357 126.451 202.194 126.016 202.03 125.581C201.523 125.743 201.019 125.898 200.505 126.05C200.514 125.071 201.32 125.227 201.978 125.247C201.837 124.835 201.673 124.437 201.483 124.049C201.045 124.134 200.613 124.252 200.174 124.336C200.285 125.281 200.433 126.218 200.573 127.156C201.074 126.89 201.578 126.596 202.164 126.617C201.752 127.089 201.208 127.365 200.609 127.48C201.074 128.401 201.64 129.265 202.315 130.041C202.901 129.774 203.483 129.498 204.056 129.207C203.575 129.734 203.166 130.334 202.626 130.796C201.402 130.83 200.724 129.403 200.135 128.479C199.176 125.83 199.68 122.949 200.046 120.234C200.197 120.132 200.498 119.927 200.649 119.825C200.619 120.186 200.564 120.912 200.534 121.273C200.956 120.159 201.13 118.796 202.138 118.058C202.819 117.697 203.801 117.342 204.416 118.017ZM104.384 120.979C104.622 121.215 104.622 121.215 104.384 120.979ZM197.395 121.367C196.613 124.093 196.616 127.015 196.688 129.842C193.582 131.937 190.263 133.671 187.075 135.631C182.42 138.313 177.87 141.187 173.435 144.234C173.37 141.457 173.144 138.687 172.938 135.921C172.348 136.66 172.538 137.604 172.509 138.485C172.201 135.928 171.514 133.323 169.975 131.249C169.17 130.233 167.9 129.177 166.548 129.616C164.931 130.371 163.969 132.045 163.147 133.59C161.328 137.581 159.891 141.896 160.022 146.362C159.773 140.911 160.853 135.064 164.388 130.82C165.39 129.599 167.066 128.361 168.653 129.211C171.049 130.682 171.815 133.725 172.362 136.346C172.692 135.769 172.646 135.105 172.571 134.467C173.386 133.681 174.656 133.758 175.563 133.097C180.669 130.139 186.014 127.652 191.124 124.707C193.045 123.601 195.058 122.669 196.979 121.566C197.045 121.472 197.179 121.279 197.245 121.182L197.395 121.367ZM80.6263 125.402C95.6699 127.473 110.724 129.487 125.816 131.134C127.437 131.259 129.152 131.498 130.68 130.786C132.533 130.101 134.533 129.437 135.764 127.733C135.8 137.554 135.751 147.371 135.767 157.191C135.708 158.052 135.937 159.152 135.165 159.745C132.54 161.557 129.247 161.942 126.163 161.645C121.545 161.162 116.966 160.339 112.4 159.496C111.378 159.607 111.513 158.467 111.166 157.816C111.074 158.123 110.884 158.737 110.792 159.044C110.484 158.926 110.184 158.797 109.886 158.652C109.601 156.716 109.741 154.756 109.719 152.809C109.86 148.859 109.846 144.905 109.853 140.954C109.735 139.632 109.548 137.83 108.105 137.368C104.934 136.319 101.572 136.211 98.3079 135.617C93.513 134.98 88.7501 134.086 83.9387 133.566C82.8394 133.478 81.68 133.364 80.6195 133.762C80.1519 133.91 79.8443 134.423 79.9297 134.922C80.1121 138.303 79.8899 141.683 79.8249 145.063C79.6968 147.833 79.9229 150.633 79.4387 153.373C79.0458 152.34 79.17 151.207 79.1302 150.124C79.0749 145.06 79.3796 139.996 79.0681 134.939C79.0943 134.227 78.8692 133.313 79.4911 132.807C80.7146 131.714 82.4795 132.072 83.9552 132.19C91.7093 133.155 99.4179 134.511 107.191 135.307C109.548 135.509 111.804 137.803 111.509 140.337C111.352 146.035 111.581 151.746 111.244 157.441C111.411 157.698 111.575 157.954 111.742 158.207C112.073 153.268 111.833 148.305 112.114 143.36C112.124 141.612 112.288 139.831 111.843 138.121C111.561 137.007 110.606 136.299 109.774 135.624C108.301 134.443 106.335 134.727 104.6 134.433C97.3726 133.458 90.155 132.399 82.9209 131.461C81.5956 131.373 80.0607 131.252 78.9536 132.163C78.4171 132.574 78.2269 133.283 78.2599 133.947C78.3909 140.465 78.2997 146.98 78.3977 153.494C76.0342 152.813 73.6251 152.327 71.2092 151.875C70.2836 151.652 69.2357 151.517 68.5284 150.802C68.3023 150.036 68.3353 149.22 68.2994 148.43C68.2567 144.159 68.5779 139.888 68.4469 135.617C68.4498 131.569 68.2926 127.521 68.5187 123.476C72.5413 124.211 76.5678 124.92 80.6263 125.402ZM88.1583 135.206C93.448 136.022 98.7242 136.92 104.033 137.591C105.728 137.932 107.784 137.911 108.963 139.423C108.992 139.794 109.015 140.168 109.035 140.543C106.256 140.327 103.516 139.774 100.78 139.241C94.5143 138.225 88.2039 137.527 81.9778 136.272C81.5102 136.238 81.1105 136.009 80.8097 135.644C85.0554 136.063 89.2284 137.061 93.4606 137.611C98.4884 138.485 103.673 138.647 108.527 140.347C108.661 140.071 108.796 139.791 108.926 139.514C107.575 138.191 105.614 138.289 103.896 137.982C97.4405 137.186 91.0185 136.12 84.6101 134.997C83.3498 134.744 82.0409 134.811 80.7971 134.474C83.2712 134.173 85.7191 134.868 88.1583 135.206ZM160.463 136.349C159.472 138.542 159.459 141.025 159.292 143.397C158.961 147.928 159.062 152.475 159.292 157.006C158.83 156.382 158.457 155.667 158.408 154.87C158.045 149.078 158.267 143.269 158.326 137.469C159.161 137.368 159.923 137.028 160.463 136.349ZM101.303 140.799C103.962 141.272 106.704 141.494 109.235 142.503C108.868 142.577 108.501 142.594 108.132 142.557C100.636 141.194 93.0812 140.205 85.5726 138.92C84.093 138.724 82.6231 138.444 81.1764 138.056C81.1532 137.891 81.1008 137.561 81.0784 137.395C87.7624 138.866 94.5803 139.551 101.303 140.799ZM165.56 139.2L165.55 139.44C165.733 139.524 166.093 139.689 166.277 139.77C165.19 139.753 164.074 139.764 163.085 140.29C162.751 140.415 162.414 140.533 162.074 140.641C162.306 140.29 162.558 139.959 162.797 139.615C163.19 139.527 163.586 139.467 163.985 139.436L163.946 139.15C164.486 139.166 165.023 139.183 165.56 139.2ZM93.7876 141.602C98.4787 142.466 103.209 143.083 107.896 143.964C108.377 144.014 108.77 144.294 109.11 144.625C99.6798 143.073 90.22 141.663 80.7971 140.04C80.7932 139.875 80.7835 139.551 80.7767 139.389C85.0778 140.334 89.4409 140.934 93.7876 141.602ZM166.264 141.221C167.386 141.636 167.835 142.921 168.087 144.014C168.607 146.916 168.165 149.918 167.219 152.678C166.676 152.786 166.136 152.917 165.596 153.062C165.989 153.335 166.404 153.561 166.827 153.774C166.493 155.086 165.966 156.49 164.784 157.222C163.74 157.89 162.342 157.313 161.681 156.348C160.994 155.306 160.873 154.01 160.781 152.789C160.673 149.824 160.506 146.818 161.197 143.906C161.465 144.47 161.537 145.134 161.891 145.657C162.342 146.103 162.915 146.383 163.432 146.733C163.318 147.611 163.396 148.778 162.362 149.081C162.211 148.336 162.11 147.58 161.949 146.841C161.37 147.536 161.534 148.538 161.976 149.263C161.855 149.409 161.606 149.702 161.485 149.85C162.244 149.55 163.069 149.29 163.638 148.656C164.149 147.58 163.766 146.143 162.81 145.478C162.13 144.996 161.697 144.267 161.252 143.572C161.681 142.722 162.156 141.683 163.157 141.444C164.169 141.224 165.242 140.931 166.264 141.221ZM85.5231 142.263C93.3228 143.367 101.12 144.527 108.864 145.995C108.89 146.153 108.943 146.467 108.966 146.622C103.833 145.613 98.665 144.804 93.5033 143.974C89.4904 143.326 85.4183 143.026 81.451 142.088C81.0619 142.017 80.7602 141.747 80.5215 141.433C82.2233 141.45 83.8407 142.074 85.5231 142.263ZM88.8452 144.625C95.2119 145.495 101.526 146.737 107.85 147.887C108.282 147.941 108.694 148.079 109.054 148.329C108.2 148.423 107.346 148.289 106.502 148.143C102.41 147.462 98.3079 146.845 94.2271 146.103C89.7456 145.252 85.2126 144.743 80.7379 143.856C80.7408 143.704 80.7476 143.397 80.7505 143.245C83.4313 143.808 86.1382 144.21 88.8452 144.625ZM90.1647 146.686C93.4276 147.3 96.6721 148.056 99.9748 148.417C102.904 148.963 105.928 149.017 108.786 149.945C108.848 150.269 108.914 150.596 108.982 150.927C108.325 150.411 107.532 150.117 106.721 149.979C104.157 149.52 101.582 149.139 98.9987 148.822C95.3555 148.349 91.7782 147.486 88.1515 146.895C85.6444 146.48 83.1402 146.038 80.636 145.597C80.6263 145.478 80.604 145.242 80.5904 145.121C83.7815 145.654 86.9668 146.211 90.1647 146.686ZM88.1777 148.103C92.5079 149.088 96.8846 149.817 101.271 150.495C103.352 150.738 105.425 151.035 107.483 151.429C108.082 151.612 108.665 151.848 109.12 152.296C108.963 152.249 108.649 152.151 108.492 152.104C107.958 151.979 107.417 151.865 106.888 151.723C101.12 151.082 95.3788 150.198 89.6903 149.004C86.636 148.44 83.6146 147.607 80.4992 147.455C80.5215 147.236 80.5409 147.017 80.5613 146.801C83.0849 147.331 85.657 147.543 88.1777 148.103ZM91.5066 150.704C95.8367 151.544 100.237 151.935 104.548 152.877C105.994 152.985 107.444 153.066 108.894 153.109C108.884 153.295 108.868 153.663 108.858 153.845C108.809 153.71 108.714 153.433 108.668 153.295C107.526 153.305 106.383 153.214 105.241 153.177C105.254 153.545 105.287 154.273 105.303 154.641C106.309 154.948 107.333 155.191 108.363 155.39C108.452 155.488 108.623 155.683 108.711 155.781C107.317 155.508 105.921 155.225 104.517 155.005C98.7931 154.459 93.1725 153.201 87.5266 152.145C85.916 151.861 84.2822 151.493 82.6425 151.703C81.9099 151.821 81.1764 151.652 80.5089 151.332C80.5778 151.048 80.6428 150.768 80.7078 150.491C81.6218 150.63 82.5086 150.913 83.3236 151.355C86.407 151.392 89.4448 152.134 92.4816 152.63C96.1938 153.494 99.9874 153.858 103.738 154.459C103.356 153.97 103.143 153.184 102.465 153.032C100.347 152.482 98.1478 152.408 96.0007 151.999C92.0596 151.392 88.1447 150.633 84.2172 149.945C83.5399 149.827 82.9277 149.476 82.2699 149.28C81.5393 149.112 80.7544 149.193 80.0568 148.876C83.9484 148.801 87.6799 150.174 91.5066 150.704ZM85.723 152.732C91.5357 153.946 97.3852 154.962 103.212 156.095C105.097 156.547 107.064 156.675 108.874 157.421C108.897 157.111 108.94 156.49 108.963 156.179C108.992 157.07 109.018 157.961 109.074 158.851C103.107 157.654 97.0486 157.006 91.0971 155.717C87.4645 155.022 83.831 154.314 80.1781 153.74C80.2072 153.373 80.2731 152.64 80.3061 152.276C82.0865 152.742 83.9387 152.32 85.723 152.732Z" fill="#64A06C"/>
<path d="M185.335 54.7008C179.208 52.1706 172.406 52.1267 165.935 52.9296C162.285 53.6111 158.606 54.1374 154.969 54.883C155.012 55.2844 155.055 55.6893 155.104 56.0941C161.509 55.804 168.157 56.1008 174.092 58.8537C174.619 59.0899 175.188 58.8773 175.722 58.7896C179.253 57.9496 182.802 57.1534 186.268 56.0604C186.009 55.5813 185.97 54.829 185.335 54.7008ZM183.378 55.3755C180.995 56.4011 178.415 56.8127 175.931 57.4908C174.288 58.0845 172.831 56.9645 171.303 56.5563C167.287 55.335 163.1 54.6536 158.904 54.8459C161.205 54.7413 163.411 53.9923 165.699 53.7899C168.426 53.5605 171.162 53.348 173.898 53.4795C177.109 53.5808 180.458 53.9417 183.378 55.3755Z" fill="#64A06C"/>
<path d="M146.407 65.3042C140.145 64.2617 133.805 63.6983 127.458 63.7051C124.886 63.7287 122.346 64.2786 119.907 65.0984C119.406 65.1928 119.154 65.6415 118.99 66.0936C120.847 65.9047 122.627 65.2502 124.499 65.1793C128.214 64.7711 131.936 65.3109 135.654 65.3582C138.037 65.348 140.394 65.8372 142.78 65.7596C140.581 66.0767 138.486 66.9404 136.25 67.0348C135.903 67.136 135.553 67.2271 135.199 67.3014C135.671 66.8763 136.204 66.5288 136.721 66.1611C136.096 66.1881 135.468 66.2184 134.846 66.2791C134.81 66.829 134.793 67.3823 134.793 67.9322C135.795 68.2797 136.882 68.4416 137.919 68.165C140.747 67.5105 143.487 66.4917 146.332 65.908C146.351 65.7562 146.39 65.456 146.407 65.3042Z" fill="#64A06C"/>
<path d="M99.6624 71.5791C94.9752 71.181 90.2724 71.2553 85.5745 71.1169C85.5745 71.2485 85.5687 71.5117 85.5648 71.6432C86.2294 71.6432 86.8873 71.6399 87.5451 71.6803C86.9299 71.7073 86.3109 71.7006 85.689 71.7006C84.7799 72.1999 83.6108 71.9806 82.8026 72.7059C81.5684 73.6809 81.6208 75.4824 81.8401 76.9094C82.0526 78.1239 83.1101 78.991 84.2822 79.0652C88.7171 79.632 93.1851 79.8681 97.6365 80.2291C103.181 80.8566 108.772 80.9004 114.327 81.3727C114.605 78.7886 114.589 76.1774 114.586 73.5831C114.775 73.6134 115.155 73.6708 115.344 73.7011C115.522 76.2415 115.466 78.8054 115.241 81.3424C115.296 81.8248 114.848 82.2364 114.379 82.0981C104.877 81.42 95.3623 80.8465 85.8831 79.8512C84.6877 79.6961 83.3556 79.6218 82.4358 78.7076C81.287 77.5437 81.1755 75.6713 81.5781 74.1498C81.9846 72.77 83.2906 71.9941 84.6188 71.8456C85.2708 71.6027 84.3307 71.3025 84.0658 71.3396C81.2279 71.5758 79.9384 75.172 80.8747 77.6381C81.6499 79.3182 83.4507 80.2325 85.1922 80.3472C90.0202 80.7959 94.8151 81.5448 99.6566 81.8484C106.635 82.3443 113.61 82.8639 120.591 83.262C123.2 83.4509 126.091 84.1998 128.464 82.6682C129.727 81.9766 130.595 80.4248 130.13 78.9539C129.354 76.6463 127.236 75.0843 125.037 74.4028C122.572 73.6505 119.993 73.4414 117.453 73.1209C111.557 72.2437 105.591 72.0919 99.6624 71.5791ZM103.561 73.1782C102.917 74.3894 102.753 75.7388 102.792 77.1051C103.227 77.574 103.538 78.2893 104.209 78.4175C104.697 78.1037 104.596 77.429 104.716 76.9297C104.923 75.7354 105.312 74.5682 105.302 73.3402C106.727 73.4549 108.154 73.4818 109.57 73.6269C109.587 73.745 109.617 73.9744 109.63 74.0891C110.464 74.3556 110.189 75.361 110.396 76.0121C111.04 75.3306 111.407 74.106 112.556 74.251C111.934 75.0944 111.198 75.8434 110.589 76.6969C110.151 77.4965 110.746 78.8864 109.722 79.2777C109.8 78.3837 110.216 77.5133 110.006 76.6092C109.725 75.6781 109.361 74.7638 108.886 73.917C107.866 74.0284 106.703 74.4298 105.85 73.61C105.793 74.8583 105.237 76.0154 105.243 77.2704C105.231 77.9688 105.076 78.991 104.229 79.0483C103.342 79.1158 102.969 78.1914 102.795 77.4661C102.635 77.9451 102.517 78.4411 102.281 78.8898C101.08 79.0618 99.9641 78.2859 99.4567 77.1996C99.4499 76.0559 99.3228 74.8718 99.6828 73.7686C99.6828 74.2274 99.6168 74.6896 99.6828 75.1484C100.245 75.0641 100.691 74.106 101.26 74.5142C102.298 74.946 101.967 76.6834 100.943 76.8656C100.436 76.6429 100.21 76.0323 99.8525 75.6207C99.7613 75.6882 99.578 75.8265 99.4858 75.894C99.3451 77.0714 100.409 78.3567 101.581 78.1712C102.71 76.815 102.347 74.8583 102.442 73.2086C100.739 72.9387 99.0346 72.7295 97.3125 72.6587C99.4043 72.6722 101.496 72.8544 103.561 73.1782ZM98.3244 73.8799C98.8319 75.0809 98.8154 76.4608 98.73 77.7427C98.6281 78.4984 97.6103 78.8527 97.2504 78.1037C97.0738 77.1557 96.9923 76.1841 96.936 75.2193C96.8118 74.5378 97.5026 74.0891 97.457 73.4279C96.9758 73.3941 96.3403 73.5662 96.3927 74.1937C96.3665 75.4487 96.5828 76.6902 96.7565 77.9249C96.3112 78.7143 95.1983 79.1023 94.5104 78.3871C93.6333 77.5066 94.4648 76.2246 94.5366 75.1788C94.5929 75.614 94.6414 76.0458 94.7035 76.481C94.6715 76.9735 94.6317 77.4695 94.6453 77.9654C95.0644 78.4984 96.1307 78.4613 96.0851 77.628C95.9376 76.1403 96.0463 74.6491 96.1346 73.1614C96.8613 73.3435 97.7908 73.2592 98.3244 73.8799ZM93.1298 74.1836C93.7682 75.4116 93.4014 76.8555 93.4664 78.1813C93.3355 78.1577 93.0706 78.1105 92.9367 78.0868C92.8843 76.7306 93.5809 74.8684 92.3245 73.9137C92.0033 73.7888 90.8546 73.4178 91.1883 74.1397C92.5864 74.7368 92.3012 76.4338 92.341 77.6888C91.8859 78.0565 91.2737 78.4309 90.7265 78.0025C89.6864 77.1793 90.0493 75.5937 90.5237 74.5378C90.5829 74.3421 90.7042 73.9542 90.7634 73.7585C91.5551 73.691 92.5699 73.4076 93.1298 74.1836ZM108.114 75.5904C108.598 76.1301 109.224 76.7441 109.077 77.5606C108.589 78.9471 106.612 79.6589 105.686 78.2859C106.429 78.3466 107.299 78.6907 107.862 77.9924C108.772 77.402 107.967 75.5735 106.982 76.0087C106.913 76.5586 106.863 77.1085 106.841 77.6618C105.891 76.9702 106.324 75.7118 106.998 75C107.485 74.8245 107.8 75.3002 108.114 75.5904ZM104.547 76.174C104.196 76.2246 103.839 76.282 103.482 76.2921C103.414 75.921 103.365 75.5499 103.332 75.1754C103.78 75.4487 104.187 75.7894 104.547 76.174Z" fill="#64A06C"/>
<path d="M97.588 77.8878C99.1239 77.0815 98.8619 74.6626 97.4153 73.8867C97.4803 75.2193 97.556 76.5519 97.588 77.8878Z" fill="#64A06C"/>
<path d="M101.599 75.246C101.327 75.1482 101.052 75.074 100.77 75.0166C100.639 75.4079 100.623 75.8094 100.718 76.221C101.026 75.9106 101.33 75.5935 101.599 75.246Z" fill="#64A06C"/>
<path d="M92.2031 76.5553C92.0324 75.911 91.6462 74.5109 90.7953 75.1519C90.5857 76.083 90.4518 77.3076 91.4502 77.8069C91.7772 77.4392 92.173 77.0917 92.2031 76.5553Z" fill="#64A06C"/>
<path d="M172.892 78.2284C172.98 77.4254 172.237 76.9531 171.808 76.3965C168.571 77.4862 165.357 78.6467 162.12 79.7397C161.278 80.0906 160.225 80.3605 159.792 81.2781C159.671 83.4136 159.871 85.5559 159.796 87.6914C159.596 95.562 159.76 103.439 159.717 111.31C159.697 111.931 159.724 112.612 160.152 113.098C160.85 113.26 161.537 113.004 162.182 112.757C165.059 111.55 167.897 110.227 170.823 109.148C171.605 108.834 172.535 108.699 173.105 108.004C173.003 107.198 172.846 106.398 172.872 105.582C172.8 96.4661 172.856 87.3472 172.892 78.2284ZM171.609 79.9422C171.605 84.2503 171.658 88.5651 171.543 92.8665C171.383 92.9711 171.059 93.1735 170.898 93.2781C171.121 88.8384 170.97 84.392 171.108 79.9523C171.222 79.345 170.663 78.2688 170.044 78.9706C169.998 79.092 169.9 79.3417 169.851 79.4631C169.92 84.0445 169.861 88.6258 169.828 93.2072C166.748 94.4352 163.576 95.4203 160.522 96.7192C160.627 91.851 160.496 86.9761 160.66 82.1148C164.057 80.4178 167.966 80.0299 171.213 77.9888C171.511 78.5961 171.641 79.2641 171.609 79.9422ZM171.242 94.8367C171.475 98.4093 171.586 101.992 171.458 105.568C171.455 105.939 171.065 106.121 170.872 106.395C170.712 102.579 170.97 98.7433 170.574 94.9413C170.741 94.9143 171.075 94.8637 171.242 94.8367ZM169.779 95.309C169.553 97.2589 169.664 99.2224 169.651 101.179C169.678 102.903 169.547 104.64 169.838 106.351C166.725 107.626 163.606 108.901 160.555 110.332C160.558 106.526 160.591 102.721 160.604 98.9154C163.674 97.7515 166.745 96.5741 169.779 95.309ZM172.813 106.955C171.01 108.095 168.928 108.631 167.01 109.532C165.016 110.338 163.151 111.536 161.049 112.032C164.814 110.008 168.751 108.257 172.813 106.955Z" fill="#64A06C"/>
<path d="M218.185 93.4905C217.533 93.6659 217.658 94.3204 217.661 94.8635C217.818 94.8703 218.136 94.8838 218.296 94.8939C218.267 94.425 218.231 93.956 218.185 93.4905Z" fill="#64A06C"/>
<path d="M216.212 96.1931C216.012 96.4292 215.809 96.6654 215.609 96.9016C215.802 97.0736 216.002 97.2355 216.208 97.3907C216.709 97.5729 216.909 96.969 217.187 96.6789C216.964 96.6823 216.519 96.6856 216.3 96.6856L216.212 96.1931Z" fill="#64A06C"/>
<path d="M205.696 120.48C205.018 119.562 204.18 118.658 203.012 118.493C202.39 118.533 202.04 119.131 201.631 119.535C202.007 119.795 202.383 120.055 202.766 120.308C202.816 121.03 202.518 121.63 201.955 122.072C202.05 121.401 201.824 120.919 201.215 120.747C201.339 121.458 201.595 122.136 201.788 122.831C201.038 122.777 200.338 122.882 200.223 123.763C200.449 123.705 200.904 123.59 201.133 123.533C202.505 123.769 202.521 122.062 203.264 121.327C203.107 121.084 202.95 120.844 202.793 120.608C203.12 120.311 203.447 120.021 203.778 119.731C204.056 120.058 204.308 120.413 204.573 120.757C204.452 120.922 204.21 121.253 204.089 121.418C204.302 121.944 204.256 122.45 203.955 122.936C204.085 123.101 204.344 123.429 204.475 123.594C205.113 123.03 206.043 122.575 205.817 121.529C205.428 121.634 204.649 121.843 204.259 121.948C204.635 121.354 205.139 120.885 205.696 120.48Z" fill="#64A06C"/>
<path d="M203.681 122.761C203.913 122.423 203.851 122.167 203.501 121.995C202.502 121.907 202.84 123.375 203.681 122.761Z" fill="#64A06C"/>
<path d="M203.353 123.28C202.977 123.482 202.587 123.654 202.185 123.796C202.237 124.039 202.342 124.525 202.394 124.764C202.905 124.714 203.419 124.687 203.933 124.67C203.864 124.386 203.727 123.82 203.658 123.536C203.553 123.688 203.337 123.988 203.232 124.137C203.262 123.924 203.324 123.496 203.353 123.28Z" fill="#64A06C"/>
<path d="M204.293 125.01C203.649 124.983 203 124.969 202.356 124.966C202.454 125.371 202.529 125.786 202.719 126.164C203.321 125.907 203.861 125.512 204.293 125.01Z" fill="#64A06C"/>
<path d="M74.3052 128.326C73.4281 127.51 71.5303 128.286 71.6545 129.548C71.9126 130.391 72.5743 131.268 73.4746 131.386C74.9999 131.663 75.6441 129.008 74.3052 128.326Z" fill="#64A06C"/>
<path d="M175.809 130.472C175.792 130.358 175.763 130.132 175.746 130.017C174.889 130.54 173.989 131.012 173.213 131.67C174.169 131.505 175.007 131.005 175.809 130.472Z" fill="#64A06C"/>
<path d="M74.6166 139.898C72.4598 139.095 69.7654 140.698 69.3735 143.046C69.0455 145.013 69.9886 147.29 71.8767 148.022C73.5659 148.886 76.0274 148.376 76.7609 146.436C77.4934 144.102 76.5678 141.298 74.6166 139.898ZM75.2027 141.534C76.0342 142.59 76.6493 144.024 76.2272 145.39C75.7751 146.551 74.636 147.232 73.5106 147.533C72.813 147.33 72.031 147.263 71.4643 146.75C70.3224 145.832 70.0507 144.085 70.5843 142.745C71.0258 141.578 72.1687 140.866 73.301 140.583C74.0636 140.397 74.7476 140.971 75.2027 141.534Z" fill="#64A06C"/>
<path d="M74.3712 141.392C73.2845 140.245 71.4119 141.358 71.0559 142.684C70.8133 143.845 70.6755 145.184 71.3595 146.227C71.835 146.915 72.7053 147.053 73.4388 147.266C73.6445 147.151 74.0539 146.915 74.2567 146.8L74.247 146.702C75.0358 146.176 75.9129 145.464 75.9226 144.398C75.9323 143.211 75.1959 142.155 74.3712 141.392ZM75.0261 144.061C75.3928 145.549 73.8899 147.043 72.4792 146.426C72.8848 146.156 73.2845 145.886 73.6871 145.623C73.7754 144.547 73.8016 143.413 73.2719 142.438C73.399 143.366 73.625 144.459 73.0031 145.262C72.6655 145.602 72.2958 145.64 71.8903 145.38C71.7564 144.108 72.1095 142.87 72.7839 141.811C74.0083 141.551 74.8398 143.005 75.0261 144.061Z" fill="#64A06C"/>
<path d="M166.781 142.287C166.477 141.916 165.813 141.693 165.436 142.075C164.85 142.398 165.279 143.161 165.292 143.66C165.135 143.896 164.975 144.133 164.814 144.369C164.631 143.9 164.441 143.438 164.238 142.979C163.98 143.987 163.957 145.185 164.867 145.856C164.88 145.192 165.017 144.554 165.328 143.974C165.551 144.507 165.796 145.037 166.074 145.546C166.277 144.851 166.487 144.156 166.762 143.488C167.099 144.278 167.132 145.219 167.75 145.86C167.989 144.574 167.495 143.313 166.781 142.287Z" fill="#64A06C"/>
<path d="M163.748 142.023C163.541 141.264 162.854 142.215 162.622 142.485C162.078 143.413 162.596 144.472 163.322 145.096C163.28 144.047 163.512 143.035 163.748 142.023Z" fill="#64A06C"/>
<path d="M168.261 146.969C167.675 146.578 167.05 146.254 166.412 145.964C165.95 146.241 165.485 146.517 165.024 146.794C164.975 147.502 165.119 148.343 164.566 148.892C163.8 149.554 162.896 150.006 162.048 150.542C162.693 150.826 163.413 151.348 164.117 151.203C165.115 150.029 165.322 148.353 166.14 147.044C166.906 147.87 167.109 149.021 167.505 150.046C167.737 149.014 167.966 147.985 168.261 146.969Z" fill="#64A06C"/>
<path d="M121.413 146.275C120.284 145.684 118.8 145.715 117.816 146.602C115.164 148.92 115.537 153.963 118.631 155.701C121.58 157.212 125.098 153.902 124.637 150.758C124.224 148.903 123.167 147.061 121.413 146.275ZM121.115 147.162C121.897 147.958 122.575 148.906 122.955 149.975C123.461 151.494 122.594 153.572 120.938 153.774C119.927 153.855 118.513 153.94 118.015 152.796C117.249 151.284 117.515 148.93 118.964 148.012C118.712 149.368 117.907 150.664 118.12 152.108C118.054 152.681 118.65 152.958 119.088 153.076C120.103 153.376 121.393 153.312 122.057 152.351C122.686 151.551 122.453 150.468 122.054 149.625C120.987 149.392 119.966 149.776 118.938 150.013C119.291 149.264 119.694 148.548 120.051 147.806C120.401 148.14 120.751 148.471 121.066 148.842C121.278 148.754 121.7 148.575 121.914 148.488C121.521 148.059 121.111 147.648 120.68 147.263C120.225 147.314 119.767 147.344 119.308 147.354C119.455 146.889 120.64 146.679 121.115 147.162ZM121.671 151.895C121.245 152.634 120.316 152.678 119.576 152.553C118.781 152.293 119.124 151.322 119.04 150.697C119.891 150.428 120.745 150.141 121.645 150.161C121.786 150.714 122.048 151.372 121.671 151.895Z" fill="#64A06C"/>
<path d="M166.602 149.647C166.356 150.342 165.679 151.742 166.716 151.952C167.57 151.446 166.87 150.329 166.602 149.647Z" fill="#64A06C"/>
<path d="M166.574 152.199C166.198 151.875 165.969 151.939 165.894 152.398C166.267 152.718 166.496 152.654 166.574 152.199Z" fill="#64A06C"/>
<path d="M165.415 153.646C165.746 152.907 165.333 152.273 164.823 151.787C164.738 152.644 164.918 153.551 164.623 154.381C163.697 154.678 162.427 154.408 162.43 153.146C162.26 153.42 162.09 153.696 161.916 153.973C162.253 154.86 162.728 155.974 163.769 156.119C164.934 156.267 165.605 155.026 166.093 154.148C165.867 153.983 165.641 153.814 165.415 153.646Z" fill="#64A06C"/>
<path d="M163.981 152.276C163.17 152.111 162.342 152.07 161.52 151.966C161.585 152.35 161.713 153.116 161.779 153.501C162.161 153.072 162.548 152.644 162.934 152.222C163.006 152.745 162.99 153.295 163.16 153.804C163.468 154.091 163.903 154.037 164.279 154.108C164.233 153.491 164.194 152.863 163.981 152.276Z" fill="#64A06C"/>
<g clip-path="url(#clip1_105_430)">
<path d="M85.7029 32.5774C85.6088 32.3864 85.4755 32.2173 85.3118 32.0812C85.148 31.9451 84.9574 31.8449 84.7524 31.7873C84.547 31.7307 84.3319 31.7179 84.1212 31.7498C83.9105 31.7817 83.7089 31.8576 83.5294 31.9725L40.0746 59.9133C39.7636 60.1135 39.5368 60.4209 39.4373 60.7771C39.3378 61.1334 39.3725 61.5138 39.5347 61.8462L45.4986 74.0604C48.114 79.4168 64.1674 73.3488 73.2405 68.9186C82.3133 64.4886 96.971 55.5611 94.3556 50.2048L94.3543 50.2021L85.7029 32.5774Z" fill="#64A06C"/>
<path d="M87.6922 36.6515L63.2632 48.5796L73.203 68.9365L73.2404 68.9185C82.0764 64.6042 96.2008 56.0266 94.5194 50.6338L87.6922 36.6515Z" fill="#64A06C"/>
<path d="M98.1043 17.2421L57.5597 22.2922C53.2519 22.8282 49.1884 24.8123 46.1165 27.8797L17.2016 56.7449C15.8102 58.1332 15.4662 60.1729 16.3293 61.9404C17.1919 63.7071 19.0117 64.6906 20.9624 64.447L61.5058 59.3969C63.6551 59.1272 65.745 58.504 67.6909 57.5523C69.6381 56.6034 71.4147 55.3387 72.9489 53.8095L101.866 24.944C103.257 23.5555 103.6 21.5167 102.737 19.7498C101.873 17.9825 100.055 16.9984 98.1043 17.2421Z" fill="#37623D" fill-opacity="0.84"/>
<path d="M99.6516 57.7032C99.4734 57.7902 99.2798 57.8413 99.0818 57.8535C98.8839 57.8657 98.6855 57.8388 98.4979 57.7743C98.3104 57.7098 98.1374 57.609 97.9888 57.4776C97.8402 57.3462 97.719 57.1868 97.6321 57.0086L88.9735 39.2756C88.8353 38.9927 88.6122 38.76 88.3354 38.61C88.0586 38.46 87.7418 38.4002 87.4293 38.439L59.468 41.9224C59.0705 41.9718 58.6697 41.8614 58.3535 41.6155C58.0374 41.3695 57.8318 41.0082 57.7818 40.6108C57.6796 39.7827 58.2644 39.0272 59.0944 38.9255L87.0557 35.4426C87.9929 35.3257 88.9432 35.5046 89.7737 35.9543C90.6042 36.4039 91.2734 37.1019 91.6878 37.9505L100.346 55.6835C100.433 55.8618 100.484 56.0554 100.497 56.2533C100.509 56.4513 100.482 56.6497 100.417 56.8373C100.353 57.0248 100.252 57.1978 100.121 57.3464C99.9892 57.495 99.8298 57.6162 99.6516 57.7032Z" fill="#2A94F4"/>
<path d="M105.648 66.5407L102.933 67.866C102.755 67.9531 102.562 68.0042 102.364 68.0164C102.166 68.0286 101.967 68.0017 101.78 67.9372C101.592 67.8726 101.419 67.7718 101.27 67.6404C101.122 67.509 101.001 67.3496 100.914 67.1713L96.9376 59.0284C96.2056 57.5293 96.8271 55.7208 98.3262 54.9888C99.8257 54.2566 101.634 54.8789 102.366 56.3779L106.342 64.5209C106.429 64.6991 106.48 64.8927 106.492 65.0906C106.504 65.2886 106.478 65.487 106.413 65.6746C106.349 65.8622 106.248 66.0352 106.117 66.1838C105.985 66.3324 105.826 66.4537 105.648 66.5407Z" fill="#64A06C"/>
<path d="M92.8526 47.2202C92.8592 47.2097 92.8682 47.1986 92.8748 47.1882L91.0532 43.4774C91.0619 43.4993 91.0562 43.5319 91.0628 43.5546L92.8526 47.2202Z" fill="#64A06C"/>
<path d="M60.6498 43.1326C63.6479 41.6687 65.4849 39.2668 64.753 37.7678C64.0211 36.2688 60.9973 36.2403 57.9993 37.7042C55.0012 39.168 53.1642 41.5699 53.8961 43.069C54.628 44.568 57.6518 44.5965 60.6498 43.1326Z" fill="#64A06C"/>
</g>
</g>
<defs>
<clipPath id="clip0_105_430">
<rect width="237" height="183" fill="white"/>
</clipPath>
<clipPath id="clip1_105_430">
<rect width="100" height="100" fill="white" transform="translate(0 32.8765) rotate(-26.0251)"/>
</clipPath>
</defs>
</svg>
