<svg width="268" height="295" viewBox="0 0 268 295" fill="none" xmlns="http://www.w3.org/2000/svg">
<path d="M213.463 76.7701C205.585 76.426 197.696 76.7128 189.83 77.121C187.365 77.3065 184.905 77.5866 182.492 78.0757C173.99 79.7895 165.458 81.3751 156.941 83.035C137.632 87.0529 118.119 90.2444 98.9316 94.7448C96.1782 95.352 93.4444 96.0234 90.7655 96.8702C87.6244 97.7912 84.274 98.6649 81.7758 100.736C79.7584 102.453 79.1231 104.99 78.9117 107.403C75.9272 107.78 72.8123 108.489 70.451 110.29C68.7359 111.61 68.1521 113.698 68.0787 115.668C67.3953 116.002 66.5892 116.346 66.4348 117.122C65.8171 120.317 65.9463 123.586 66.3012 126.804C66.4895 127.675 66.6122 129 67.8159 129.162C69.6526 129.51 71.5813 129.429 73.4071 129.071C74.2197 128.916 75.143 128.386 75.1288 127.54C75.4836 124.402 75.3467 121.238 75.0806 118.1C75.0806 116.926 73.8167 116.403 72.9887 115.732C72.9011 114.99 73.1004 114.123 73.8977 113.765C75.5088 112.871 77.3193 112.311 79.1231 111.849C78.5722 116.508 77.6708 121.133 77.3718 125.823C76.6654 131.325 76.2777 136.861 75.8122 142.387C75.6238 144.044 74.752 145.535 74.1529 147.087C73.7389 148.065 74.2603 149.08 74.2712 150.072C73.9536 151.651 73.7203 153.25 73.6842 154.859C73.7028 160.814 73.9021 166.768 73.6546 172.719C73.5801 174.659 73.544 176.599 73.6842 178.535C73.1114 178.94 72.2647 179.298 72.3688 180.097C72.4049 181.862 72.2461 183.704 72.8857 185.397C73.4772 186.855 74.9218 187.924 76.5219 188.376C80.9478 189.54 85.504 190.184 90.0229 190.964C105.127 193.629 120.277 196.082 135.482 198.227C138.91 198.74 142.358 199.337 145.846 199.266C147.759 199.226 149.574 198.629 151.314 197.954C152.367 197.455 153.572 197.967 154.662 197.64C156.927 196.976 158.974 195.832 160.932 194.624C163.511 193.039 166.312 191.787 169.039 190.437C171.274 191.773 173.931 192.357 176.525 192.779C179 193.035 181.793 193.393 183.962 192.006C185.507 191.153 186.575 189.753 187.255 188.255C188.98 184.416 189.948 180.344 190.757 176.275C192.206 176.113 193.129 175.152 194.024 174.217C198.59 171.329 203.383 168.745 208.212 166.235C211.054 164.751 214.021 163.421 216.614 161.579C217.346 163.064 219.201 163.604 220.83 163.84C222.8 164.103 224.795 164.262 226.783 164.208C228.741 163.965 230.045 162.396 230.984 160.949C232.639 158.253 233.537 155.186 233.718 152.106C234.915 152.066 236.031 151.668 236.995 151.034C240.886 148.628 245.195 146.776 248.708 143.888C249.359 141.999 249.421 139.941 249.322 137.968C249.303 136.716 248.357 135.782 247.677 134.783C247.456 134.071 247.567 133.309 247.556 132.576C247.77 127.401 247.467 122.223 247.537 117.044C247.907 110.162 247.341 103.273 246.584 96.4282C246.236 92.778 247.016 88.9422 245.361 85.4808C244.134 82.7482 241.156 81.1221 238.204 80.2517C230.234 77.8328 221.783 77.2829 213.463 76.7701ZM226.033 79.2565C230.47 79.9953 234.96 80.6768 239.19 82.1544C240.624 82.6335 241.714 83.649 242.682 84.6948C236.042 85.7912 229.613 87.7007 223.08 89.2053C216.26 90.9225 209.398 92.4946 202.581 94.2219C194.319 96.0841 186.19 98.3849 178.006 100.507C171.725 102.15 165.443 103.783 159.177 105.459C158.068 105.743 156.978 106.154 155.818 106.242C154.554 105.159 153.483 103.854 151.924 103.088C146.367 100.173 139.993 98.9213 133.708 98.115C123.761 96.9309 113.707 96.4586 103.675 96.6441C101.522 96.6306 99.3894 97.0287 97.2351 96.9579C98.7542 96.3034 100.45 96.1381 102.046 95.7198C115.677 92.4676 129.5 89.9711 143.263 87.2419C155.737 85.0018 168.074 82.1376 180.559 79.9515C185.193 78.8449 189.985 78.4367 194.759 78.2647C205.182 77.5225 215.679 77.988 226.033 79.2565ZM243.447 85.2852C244.559 87.6265 244.836 90.2073 244.733 92.7341C245.061 95.9964 245.368 99.2587 245.745 102.514C246.188 107.713 246.248 112.952 245.897 118.151C240.439 119.166 235.529 121.697 230.263 123.262C229.927 113.954 229.912 104.64 230.097 95.3318C230.153 94.8764 230.167 94.2624 230.755 94.1072C232.964 93.4965 235.207 92.9838 237.409 92.3461C238.776 91.9852 240.121 91.4386 241.577 91.4791C241.906 93.1288 241.843 94.8089 241.88 96.4788C241.969 99.2013 242.017 101.937 241.755 104.656C241.237 103.928 241.415 103.044 241.385 102.224C241.444 99.2789 241.156 96.3371 241.215 93.392C241.444 92.8994 241.71 92.3664 241.407 91.8401C240.949 91.7085 240.469 91.7861 240.018 91.9008C237.613 92.5283 235.237 93.2536 232.828 93.8778C232.151 94.1038 231.268 93.8103 230.751 94.3636C230.537 95.045 230.555 95.7602 230.548 96.4586C230.618 105.243 230.396 114.038 230.995 122.81C234.45 121.582 237.794 120.101 241.226 118.809C242.364 118.411 243.584 117.625 243.617 116.4C243.901 108.742 243.687 101.08 243.691 93.419C243.495 92.1066 243.148 90.548 241.91 89.7248C240.79 89.5764 239.667 89.9644 238.581 90.1904C233.389 91.4757 228.264 92.9703 223.047 94.1645C213.899 96.8128 204.499 98.6683 195.376 101.398C188.781 103.017 182.263 104.886 175.8 106.903C172.645 107.726 169.456 108.448 166.338 109.393C161.981 110.479 157.769 112.011 153.372 112.969C152.648 111.603 152.201 110.037 150.871 109.032C151.392 110.351 151.757 111.724 151.658 113.138C150.457 113.269 149.249 113.431 148.033 113.347C137.705 112.881 127.4 112.105 117.092 111.377C108.323 110.753 99.5887 109.781 90.8027 109.4C87.5291 109.16 84.1809 109.201 81.0255 108.266C81.0474 106.219 81.2654 103.982 82.825 102.379C85.1009 100.065 88.4819 99.0293 91.7446 98.476C95.6798 97.6461 99.7366 97.997 103.734 97.943C108.175 97.8924 112.618 98.0206 117.048 98.2905C126.827 98.7931 136.768 99.1136 146.208 101.732C149.818 102.626 153.368 104.299 155.556 107.16C161.01 106.181 166.286 104.525 171.647 103.199C182.152 100.551 192.549 97.5618 203.124 95.1429C212.029 92.7645 221.056 90.7875 230.005 88.5474C234.479 87.4342 238.972 86.3883 243.447 85.2852ZM240.48 93.365C240.487 97.1097 240.509 100.858 240.635 104.603C237.609 105.402 234.623 106.32 231.649 107.264C231.749 103.385 231.545 99.5016 231.679 95.6186C234.579 94.7684 237.509 93.9857 240.48 93.365ZM227.995 95.3149C228.553 97.916 228.309 100.585 228.394 103.216C228.342 109.542 228.663 115.857 228.693 122.179C226.753 122.759 224.806 123.323 222.892 123.974C220.416 124.854 218.033 125.944 215.547 126.801C216.418 126.028 217.582 125.667 218.665 125.219C221.754 124.021 224.858 122.648 228.187 122.145C227.899 113.303 227.599 104.451 227.821 95.6084C226.317 95.6455 224.913 96.1887 223.468 96.5092C220.461 97.329 217.372 97.9598 214.493 99.1237C213.932 103.182 214.139 107.281 214.006 111.36C213.906 107.413 213.913 103.462 214.072 99.5185C214.05 98.9045 214.737 98.6346 215.269 98.4693C218.913 97.2851 222.678 96.4653 226.38 95.4667C226.901 95.3588 227.463 95.126 227.995 95.3149ZM226.465 97.2176C226.402 101.182 226.461 105.146 226.421 109.11C222.526 109.96 218.865 111.488 215.007 112.439C215 108.442 214.856 104.43 215.111 100.436C218.739 98.9517 222.667 98.2432 226.465 97.2176ZM212.546 98.7628C213.208 106.421 212.905 114.116 212.668 121.788C212.779 124.335 212.446 126.916 212.89 129.436C207.458 131.682 201.883 133.612 196.362 135.667C195.742 133.096 196.144 130.458 196.041 127.854C195.952 120.543 195.945 113.232 196.06 105.922C196.193 105.092 195.978 104.086 196.632 103.412C197.896 102.761 199.318 102.416 200.708 102.069C204.251 101.205 207.691 100.008 211.271 99.2654C207.019 100.743 202.6 101.789 198.269 103.057C197.678 103.263 197.127 103.56 196.562 103.82C196.525 109.015 196.362 114.211 196.418 119.406C196.677 124.514 196.337 129.631 196.691 134.736C200.261 134.29 203.427 132.607 206.79 131.527C208.607 130.711 210.665 130.283 212.306 129.183C211.94 125.603 211.859 122 212.029 118.407C212.129 111.964 212.103 105.517 211.844 99.0765L212.546 98.7628ZM210.433 101.033C210.725 109.299 210.344 117.564 210.278 125.829C210.17 126.362 210.503 127.594 209.527 127.408C209.424 123.913 209.664 120.418 209.635 116.923C209.771 116.781 210.037 116.501 210.17 116.36C209.465 111.38 210.13 106.336 209.893 101.333C209.635 101.451 209.114 101.688 208.855 101.809C208.888 105.952 208.744 110.098 208.84 114.244C204.861 115.051 201.122 116.613 197.308 117.905C197.342 113.482 197.242 109.046 197.549 104.633C201.768 103.233 206.228 102.484 210.433 101.033ZM194.471 112.662C194.46 120.516 194.559 128.366 194.563 136.217C190.129 137.87 185.666 139.466 181.276 141.22C180.304 141.648 179.285 142.026 178.183 142.019C178.124 141.463 178.062 140.903 178.039 140.343C178.054 129.743 178.228 119.139 178.22 108.54C179.709 107.608 181.494 107.254 183.175 106.725C186.878 105.635 190.488 104.242 194.316 103.54C194.552 106.576 194.378 109.622 194.471 112.662ZM241.773 116.09C241.503 115.897 240.805 115.955 240.949 115.499C241.034 112.453 241.075 109.4 240.886 106.357C241.101 106.215 241.529 105.935 241.743 105.793C241.891 109.221 241.873 112.662 241.773 116.09ZM240.284 115.881C237.413 117.034 234.501 118.117 231.516 119.011C231.494 115.826 231.534 112.645 231.442 109.464C234.239 108.165 237.365 107.713 240.28 106.704C240.291 109.761 240.243 112.821 240.284 115.881ZM176.735 108.179C176.861 110.921 176.809 113.667 176.901 116.41C176.717 126.406 176.842 136.412 176.27 146.395C176.347 153.486 175.941 160.571 175.856 167.659C175.564 173.178 175.826 178.701 175.952 184.22C176 184.689 175.878 185.124 175.579 185.519C174.928 173.509 175.508 161.468 175.538 149.445C175.686 140.221 175.97 130.994 175.808 121.768C175.623 117.82 175.819 113.87 175.652 109.926C175.675 109.221 176.351 108.742 176.735 108.179ZM79.4813 108.836C79.4145 109.099 79.2852 109.622 79.2228 109.886C77.0465 110.823 74.5779 111.289 72.6415 112.645C71.4849 113.424 72.1574 114.814 72.2834 115.877C71.7368 115.992 71.1859 116.103 70.635 116.211C69.8114 114.605 70.3251 112.655 71.785 111.512C73.9273 109.848 76.7837 109.285 79.4813 108.836ZM174.526 109.835C168.961 110.955 163.648 112.905 158.113 114.126C156.86 114.74 155.149 114.909 154.366 116.096C154.074 116.339 154.189 117.139 153.646 117.007C153.45 116.08 153.313 114.281 154.68 114.079C156.945 113.401 159.336 113.168 161.593 112.463C165.469 111.502 169.294 110.375 173.173 109.427C173.805 109.285 174.448 109.066 175.102 109.221C175.741 109.525 174.825 109.845 174.526 109.835ZM85.1305 110.236C83.6826 110.577 82.2785 111.377 81.6871 112.682C80.996 114.288 80.8996 116.042 80.7452 117.746C80.6115 125.499 81.0584 133.258 80.6816 141.007C80.6302 142.256 80.2611 143.46 80.0387 144.688C82.4373 144.651 84.5029 143.423 86.6978 142.711C88.4042 142.154 90.1193 141.577 91.8596 141.135C94.7445 141.399 97.6272 140.953 100.431 140.356C101.433 140.133 102.456 139.978 103.487 140.059C99.4332 141.834 95.3951 143.649 91.5453 145.774C89.7415 146.557 88.1862 147.751 86.3834 148.517C83.9378 148.375 81.2654 148.176 79.2118 146.827C77.6084 145.572 77.8855 143.423 77.9665 141.695C78.9643 131.109 79.1965 120.431 81.318 109.966C82.5928 110.037 83.8556 110.233 85.1305 110.236ZM226.812 111.016C226.805 113.823 226.905 116.629 226.942 119.436C226.882 120.01 227.171 120.792 226.373 121.083C226.155 117.712 226.343 114.332 226.129 110.958C226.299 110.972 226.642 111.002 226.812 111.016ZM174.599 111.036C174.459 117.77 174.692 124.504 174.603 131.237C174.47 149.225 174.204 167.22 174.577 185.208C174.651 185.853 173.798 186.079 173.347 186.413C168.669 188.835 163.81 190.964 159.243 193.568C159.229 192.92 159.232 192.276 159.243 191.635C160.596 191.338 161.752 190.613 162.953 190.009C165.085 188.923 167.169 187.759 169.342 186.74C170.402 186.193 171.592 185.859 172.549 185.154C172.279 183.95 172.312 182.719 172.294 181.497C172.157 161.252 172.752 141.014 172.955 120.776C172.878 118.34 173.103 115.901 172.863 113.472C170.254 114.025 167.797 115.024 165.266 115.803C163.293 116.494 161.268 117.071 159.351 117.888C159.945 127.722 159.617 137.573 159.798 147.414C159.879 149.337 159.661 151.277 160.03 153.183C163.707 152.302 166.966 150.406 170.324 148.837C170.117 150.605 170.136 152.386 170.114 154.164C170.099 164.197 170.01 174.227 170.014 184.26C166.356 185.782 163.149 188.069 159.406 189.439C159.014 181.511 159.351 173.566 159.125 165.631C159.033 159.896 159.354 154.164 159.114 148.429C159.14 141.682 159.022 134.935 159.077 128.188C158.959 123.896 158.796 119.608 158.634 115.32C163.943 113.86 169.212 112.254 174.599 111.036ZM225.312 111.424C225.416 114.636 225.349 117.847 225.36 121.059C221.987 122.415 218.477 123.464 215.099 124.807C215.232 121.417 215.199 118.019 215.07 114.629C218.462 113.502 221.913 112.537 225.312 111.424ZM90.9166 111.714C90.7359 121.079 90.8947 130.448 90.8915 139.813C87.8204 140.65 84.9169 141.884 81.9456 142.967C82.3738 137.077 81.9609 131.18 82.112 125.286C82.2007 122.193 82.0014 119.085 82.3628 116.002C82.5512 114.227 83.664 112.375 85.6113 111.795C87.333 111.333 89.1621 111.609 90.9166 111.714ZM110.463 112.851C110.504 116.96 110.559 121.069 110.456 125.178C108.715 125.468 107.005 125.927 105.353 126.497C105.032 130.208 104.677 133.923 104.777 137.651C100.952 138.275 97.1573 139.179 93.278 139.425C93.1301 133.325 93.2221 127.223 93.1301 121.12C93.0677 118.009 93.2155 114.885 92.9089 111.782C98.7761 111.944 104.618 112.443 110.463 112.851ZM132.381 114.254C132.511 116.012 132.451 117.773 132.322 119.531C125.579 121.096 118.954 123.046 112.358 125.067C112.258 121.005 112.263 116.947 112.107 112.891C118.858 113.421 125.624 113.809 132.381 114.254ZM153.439 114.126C153.184 115.682 152.91 117.233 152.87 118.809C153.036 118.505 153.372 117.901 153.538 117.598L153.827 117.517C153.531 119.683 153.586 121.892 153.051 124.028C152.489 121.346 153.213 118.465 151.876 115.911C151.68 115.469 151.118 115.007 151.595 114.551C152.142 114.221 152.818 114.211 153.439 114.126ZM143.485 114.7C140.717 116.265 137.68 117.372 134.716 118.59C134.632 117.142 134.584 115.695 134.617 114.244C137.554 114.649 140.529 114.561 143.485 114.7ZM214.065 114.447C214.538 119.177 214.168 123.943 214.312 128.687C217.028 127.938 219.548 126.727 222.168 125.755C224.34 124.861 226.594 124.129 228.737 123.171C228.878 123.205 229.162 123.272 229.303 123.306C224.396 125.178 219.559 127.212 214.571 128.913C214.331 128.862 213.851 128.764 213.607 128.717C213.81 123.964 213.566 119.18 214.065 114.447ZM148.476 114.983C149.529 115.297 150.59 115.877 151.196 116.734C151.75 119.443 151.58 122.223 151.177 124.939C151.041 122.938 151.011 120.927 150.727 118.94C150.028 116.37 146.984 115.024 144.301 114.781C145.694 114.831 147.106 114.747 148.476 114.983ZM171.998 115.209C172.22 116.717 172.146 118.242 172.146 119.757C172.083 130.444 171.813 141.129 171.248 151.799C171.237 162.609 171.237 173.421 171.145 184.233C171.119 172.638 170.99 161.04 171.089 149.441C171.267 143.598 171.448 137.752 171.311 131.902C171.511 126.841 171.211 121.778 171.278 116.714C171.215 116.117 171.64 115.655 171.998 115.209ZM157.518 115.273C157.547 118.917 157.725 122.557 157.873 126.197C157.525 126.214 156.834 126.248 156.487 126.264C156.583 123.653 156.398 120.911 157.455 118.438C156.779 118.562 156.117 118.758 155.478 119.001C155.611 120.523 155.67 122.071 155.282 123.569C154.178 122.034 154.732 120.077 154.843 118.367C155.002 116.926 156.413 116.113 157.518 115.273ZM68.2748 118.063C68.7183 117.992 69.6044 117.851 70.048 117.783C70.1444 118.67 68.9692 118.556 68.4478 118.175C68.1302 118.262 67.5026 118.434 67.185 118.522C67.4358 117.142 69.4237 117.038 69.8191 115.675C70.4401 116.754 68.8804 117.365 68.2748 118.063ZM149.093 119.099C149.603 122.331 148.935 125.63 149.563 128.855C149.625 135.164 150.265 141.456 150.209 147.765C149.984 150.221 149.515 153.139 147.094 154.63C145.783 155.534 144.061 155.338 142.528 155.217C136.545 154.61 130.582 153.861 124.6 153.237C121.832 150.464 118.334 148.399 115.569 145.619C113.955 143.983 112.048 142.573 110.722 140.714C110.341 140.781 109.953 140.845 109.565 140.903C111.572 140.076 113.681 139.476 115.769 138.845C115.839 138.585 115.98 138.065 116.05 137.802C114.834 137.667 113.153 137.846 112.54 136.611C112.347 133.487 112.269 130.337 112.487 127.213C116.231 126.13 119.919 124.891 123.658 123.795C130.127 121.973 136.516 119.885 142.657 117.267C143.887 116.869 145.214 115.965 146.548 116.542C147.723 117.004 148.942 117.851 149.093 119.099ZM241.644 116.727C240.99 117.311 240.121 117.594 239.297 117.915C237.18 118.691 235.082 119.504 233.016 120.384C232.554 120.6 232.037 120.668 231.531 120.732C232.536 120 233.799 119.703 234.945 119.214C237.188 118.411 239.345 117.395 241.644 116.727ZM169.826 116.525C169.789 126.625 169.863 136.73 169.659 146.83C166.94 148.291 164.209 149.812 161.228 150.787C160.692 141.017 161.032 131.22 160.91 121.44C160.995 120.722 160.655 119.632 161.571 119.271C164.228 118.148 167.036 117.341 169.826 116.525ZM73.8276 117.621C73.13 117.908 72.4049 118.158 71.6404 118.262C71.5923 118.175 71.497 117.996 71.4488 117.908C71.8398 117.034 73.1114 117.26 73.8276 117.621ZM208.722 116.869C208.312 118.131 208.467 119.46 208.419 120.762C208.478 122.972 208.223 125.198 208.53 127.401C206.989 127.823 205.567 128.521 204.066 129.031C201.779 129.881 199.348 130.498 197.297 131.801C197.563 128.194 197.467 124.578 197.408 120.968L197.56 120.796C201.155 119.207 205.119 118.444 208.722 116.869ZM73.3293 119.514C73.2592 121.997 73.2373 124.48 73.1223 126.959C71.6919 127.543 70.0513 127.769 68.5519 127.273C68.4588 124.854 68.3558 122.439 68.3635 120.02C70.0403 120.017 71.6854 119.767 73.3293 119.514ZM246.14 119.723C246.041 125.03 246.067 130.34 246.037 135.646C242.309 137.097 238.954 139.196 235.373 140.906C234.86 139.621 234.431 138.271 233.53 137.158C232.288 135.512 229.639 134.776 227.695 135.812C225.671 136.874 224.167 138.659 223.317 140.629C222.419 142.677 221.639 144.769 221.037 146.908C218.465 147.633 216.289 149.168 213.839 150.16C214.087 150.291 214.323 150.426 214.56 150.571C214.227 150.717 213.895 150.865 213.562 151.02C213.581 150.831 213.614 150.453 213.629 150.268C208.098 152.879 202.452 155.291 196.917 157.902C197.216 158.007 197.501 158.132 197.774 158.277C196.185 159.164 194.497 159.92 192.76 160.537C192.147 159.06 191.699 157.427 190.44 156.276C189.028 155.038 186.708 155.028 185.082 155.915C182.617 157.241 181.058 159.528 179.698 161.755C178.967 162.794 178.361 164.208 176.835 164.4C176.51 161.337 176.813 158.257 176.805 155.187C176.783 151.492 176.912 147.798 176.75 144.104C179.698 144.394 182.314 142.92 184.949 141.972C187.949 140.913 190.924 139.796 193.935 138.76C201.546 135.751 209.317 133.079 216.943 130.1C220.664 128.808 224.337 127.415 228.028 126.059C233.988 123.768 240.147 121.943 246.14 119.723ZM154.931 125.428C154.943 125.728 154.961 126.329 154.972 126.629C154.503 126.467 154.037 126.291 153.575 126.109C152.692 126.764 151.473 126.696 150.453 127.094C150.59 126.487 150.741 125.883 150.867 125.276C151.03 125.651 151.203 126.022 151.392 126.386C151.975 126.369 152.556 126.332 153.136 126.271C152.958 125.769 152.748 125.276 152.589 124.767C153.269 125.212 153.875 125.745 154.529 126.217C154.3 125.728 154.078 125.236 153.86 124.74C154.226 124.959 154.577 125.195 154.931 125.428ZM211.397 127.911C210.898 128.397 210.27 128.761 209.583 128.984C205.663 130.279 201.846 131.828 197.922 133.103C198.727 132.357 199.843 132.043 200.867 131.639C204.351 130.336 207.865 129.088 211.397 127.911ZM156.808 128.002C156.82 130.097 156.901 132.195 156.823 134.287C156.893 134.877 156.358 135.316 155.792 135.481C154.699 135.798 153.542 135.579 152.434 135.427C152.33 133.126 152.145 130.826 152.197 128.525C153.742 128.4 155.294 128.339 156.808 128.002ZM110.907 127.982C111.058 131.062 110.936 134.159 110.593 137.222L110.227 137.178C110.234 134.284 110.193 131.386 110.348 128.498C110.489 128.37 110.766 128.113 110.907 127.982ZM109.495 128.343C109.743 130.751 109.302 133.167 109.358 135.582C109.503 137.627 108.608 139.624 109.067 141.665C110.378 142.799 111.967 143.629 113.189 144.853C115.236 146.807 117.213 148.827 119.453 150.605C120.554 151.405 121.821 152.059 122.638 153.139C119.327 151.273 116.759 148.551 113.966 146.118C112.68 145.035 111.693 143.669 110.179 142.819C110.445 143.247 110.977 144.104 111.243 144.533C110.907 144.249 110.577 143.952 110.264 143.645L110.348 143.453C109.979 142.998 109.595 142.549 109.214 142.1C109.089 142.225 108.834 142.475 108.704 142.6C108.793 138.808 108.785 135.012 108.974 131.224C109.037 130.252 109.003 129.237 109.495 128.343ZM107.473 137.067C107.43 137.529 106.768 137.478 106.435 137.688C106.332 134.685 106.413 131.632 107.108 128.687C107.392 128.646 107.965 128.569 108.25 128.532C107.744 131.352 107.674 134.219 107.473 137.067ZM246.809 142.842C246.51 142.512 246.078 142.205 246.096 141.729C245.993 140.009 246.122 138.207 247.023 136.655C248.047 138.599 247.445 140.872 246.809 142.842ZM232.395 137.903C234.025 139.357 234.339 141.55 234.42 143.527C238.152 141.591 242.253 140.113 245.531 137.529C245.582 139.482 245.158 141.432 245.427 143.386C245.734 144.222 244.729 144.603 244.145 145.022C241.086 146.786 237.938 148.429 234.989 150.355C235.174 147.98 235.88 145.592 235.444 143.21C235.104 143.564 234.682 143.888 234.49 144.337C234.195 146.408 234.206 148.507 233.966 150.585C233.807 147.515 234.487 144.377 233.507 141.365C233.156 139.729 232.244 137.947 230.348 137.438C228.604 136.942 227.086 138.305 226.328 139.59C224.581 142.428 223.542 145.578 222.789 148.743C222.109 151.502 222.245 154.347 222.238 157.157C221.942 157.244 221.351 157.417 221.056 157.504C221.713 155.544 221.281 153.456 221.628 151.452C221.736 148.49 222.744 145.653 223.683 142.846C224.569 140.737 225.597 138.406 227.806 137.181C229.266 136.294 231.202 136.915 232.395 137.903ZM151.672 139.354C151.872 144.614 152.271 149.924 151.377 155.143C150.021 156.695 147.819 157.427 145.812 158.041C142.613 158.442 139.398 157.882 136.224 157.518C132.481 157.133 128.742 156.698 125.017 156.188C118.788 155.254 112.492 154.755 106.254 153.861C98.5395 152.768 90.7918 151.877 83.032 151.088C80.5929 150.791 78.029 150.656 75.8341 149.536C75.7158 148.045 75.9447 146.57 76.2372 145.109C76.7213 146.081 77.305 147.07 78.3028 147.684C80.398 149.067 83.0835 149.094 85.504 149.65C85.4854 149.826 85.4448 150.177 85.4229 150.352C86.5642 150.163 87.7656 150.109 88.8959 150.372C88.5038 150.673 88.1085 150.97 87.7098 151.266C88.0307 151.361 88.6703 151.557 88.9879 151.651C89.5684 151.455 89.9156 150.946 90.3592 150.588C92.9746 150.767 95.5692 151.131 98.1704 151.432C105.508 152.424 112.898 153.021 120.255 153.861C125.904 154.856 131.668 155.106 137.355 155.868C139.808 156.118 142.262 156.522 144.741 156.458C147.276 156.408 149.725 154.856 150.546 152.646C151.58 150.106 152.205 147.373 151.75 144.661C151.724 141.965 151.344 139.28 151.366 136.588C151.854 137.445 151.599 138.433 151.672 139.354ZM157.584 194.354C157.067 194.665 156.546 194.965 156.007 195.255C155.789 194.398 155.722 193.521 155.726 192.647C155.497 174.302 155.56 155.959 155.545 137.613C156.236 137.357 156.916 137.077 157.577 136.763C157.64 155.959 157.322 175.158 157.584 194.354ZM154.894 137.499C154.724 144.516 154.669 151.533 154.625 158.553C154.699 170.854 154.473 183.161 155.009 195.457C154.495 195.721 153.974 195.974 153.439 196.203C152.98 193.97 153.546 191.564 152.6 189.422C152.304 189.449 151.709 189.5 151.414 189.523C151.728 190.552 152.293 191.534 152.267 192.634C152.293 193.818 152.478 195.403 151.185 196.112C148.909 197.293 146.267 197.991 143.636 197.799C139.797 197.519 136.024 196.77 132.215 196.284C122.945 195.046 113.696 193.669 104.489 192.087C96.0829 190.643 87.6539 189.307 79.2896 187.671C77.7815 187.307 76.0148 187.057 75.0247 185.839C73.9569 184.132 73.8539 182.074 74.039 180.158C76.3335 180.914 78.7277 181.312 81.1252 181.666C88.8335 183.036 96.5221 184.5 104.274 185.637C112.809 187.003 121.404 188.052 129.931 189.452C135.418 190.211 140.957 191.348 146.533 190.728C148.606 190.502 151.103 190.296 152.382 188.575C152.415 177.328 152.363 166.08 152.471 154.832C152.718 149.148 152.526 143.457 152.659 137.772C153.387 137.583 154.141 137.512 154.894 137.499ZM106.924 138.98C106.162 139.702 105.02 139.803 103.994 139.965C104.57 139.01 105.834 138.777 106.924 138.98ZM107.64 139.752C107.61 139.918 107.555 140.245 107.526 140.407C102.781 141.615 98.5099 143.895 94.3426 146.226C92.6756 147.198 91.0941 148.325 89.2464 149.009C88.4743 149.259 87.839 149.836 86.9595 149.755C89.5717 147.68 92.8158 146.489 95.728 144.833C99.5044 142.775 103.602 141.304 107.64 139.752ZM107.596 141.149C107.596 142.06 107.581 142.998 108.072 143.824C107.91 146.354 107.703 148.888 107.592 151.422C101.958 150.693 96.3041 150.119 90.6549 149.495C94.2352 147.1 98.1332 145.14 102.061 143.261C103.871 142.488 105.759 141.871 107.596 141.149ZM115.769 149.262C117.229 150.44 118.862 151.438 120.107 152.818C116.298 152.197 112.447 151.857 108.6 151.513C108.541 148.777 109.466 146.091 109.095 143.355C111.08 145.545 113.522 147.316 115.769 149.262ZM229.491 145.312C227.607 144.148 224.85 145.69 224.969 147.728C224.673 147.792 224.374 147.856 224.078 147.926C224.891 146.817 225.216 145.221 226.797 144.755C227.743 144.216 228.712 144.823 229.491 145.312ZM113.16 146.294C112.436 146.074 111.682 145.352 111.457 144.695C112.166 144.857 113.001 145.629 113.16 146.294ZM229.022 146.017C230.976 147.65 231.006 150.271 231.01 152.508C231.128 154.299 230.792 156.607 228.674 157.332C229.303 156.489 230.097 155.709 230.334 154.68C230.116 154.438 229.683 153.959 229.465 153.719C229.713 153.864 230.2 154.154 230.444 154.299C230.581 154.121 230.855 153.77 230.991 153.594C230.836 153.361 230.681 153.129 230.522 152.899L229.613 153.186C229.994 152.44 230.685 151.843 230.88 151.02C230.171 151.455 229.513 151.961 228.87 152.474C228.715 153.662 229.388 154.896 228.863 156.037C228.756 155.386 228.723 154.728 228.682 154.07C228.135 154.387 227.259 154.461 227.101 155.143C226.694 155.871 227.426 156.28 227.991 156.641C227.976 156.259 227.939 155.494 227.921 155.109C228.146 155.659 228.372 156.209 228.597 156.755C227.74 156.958 226.857 156.985 226.214 156.347C226.439 155.861 226.665 155.375 226.886 154.886C226.698 154.451 226.513 154.016 226.328 153.581C225.756 153.743 225.186 153.898 224.606 154.05C224.618 153.071 225.526 153.226 226.269 153.247C226.11 152.835 225.926 152.437 225.711 152.049C225.216 152.133 224.728 152.252 224.233 152.336C224.359 153.28 224.525 154.218 224.684 155.156C225.249 154.89 225.818 154.596 226.48 154.616C226.014 155.089 225.401 155.365 224.725 155.48C225.249 156.401 225.889 157.265 226.65 158.041C227.311 157.774 227.969 157.497 228.615 157.207C228.072 157.734 227.61 158.334 227.001 158.796C225.619 158.83 224.854 157.403 224.189 156.479C223.106 153.83 223.675 150.949 224.089 148.233C224.259 148.132 224.599 147.927 224.769 147.825C224.736 148.186 224.673 148.912 224.64 149.273C225.116 148.159 225.312 146.796 226.45 146.058C227.219 145.697 228.327 145.342 229.022 146.017ZM116.102 148.979C116.371 149.215 116.371 149.215 116.102 148.979ZM221.096 149.367C220.213 152.093 220.217 155.014 220.298 157.842C216.792 159.937 213.045 161.671 209.446 163.631C204.192 166.313 199.056 169.187 194.05 172.233C193.976 169.457 193.721 166.687 193.488 163.921C192.823 164.66 193.037 165.604 193.004 166.485C192.656 163.928 191.881 161.323 190.144 159.248C189.235 158.233 187.801 157.177 186.275 157.616C184.45 158.371 183.364 160.044 182.436 161.59C180.382 165.581 178.76 169.895 178.908 174.362C178.627 168.91 179.846 163.064 183.837 158.82C184.967 157.599 186.859 156.361 188.651 157.211C191.356 158.682 192.22 161.725 192.838 164.346C193.211 163.769 193.159 163.104 193.074 162.467C193.994 161.681 195.428 161.758 196.451 161.097C202.215 158.138 208.249 155.652 214.017 152.707C216.186 151.6 218.458 150.669 220.627 149.566C220.701 149.472 220.852 149.279 220.926 149.182L221.096 149.367ZM89.2836 153.402C106.265 155.473 123.259 157.487 140.295 159.134C142.125 159.258 144.061 159.498 145.786 158.786C147.878 158.101 150.135 157.437 151.525 155.733C151.565 165.554 151.51 175.371 151.528 185.191C151.462 186.052 151.721 187.152 150.849 187.745C147.885 189.557 144.168 189.942 140.687 189.645C135.474 189.162 130.305 188.339 125.151 187.496C123.997 187.607 124.149 186.467 123.757 185.816C123.654 186.123 123.44 186.737 123.336 187.044C122.988 186.926 122.649 186.797 122.313 186.652C121.991 184.716 122.15 182.756 122.124 180.809C122.283 176.859 122.268 172.905 122.276 168.954C122.143 167.632 121.932 165.83 120.303 165.368C116.723 164.319 112.928 164.211 109.243 163.617C103.831 162.98 98.4541 162.086 93.0228 161.566C91.7819 161.478 90.4731 161.364 89.276 161.762C88.7481 161.91 88.4009 162.423 88.4973 162.922C88.7032 166.303 88.4524 169.683 88.379 173.063C88.2344 175.833 88.4896 178.633 87.9431 181.373C87.4995 180.34 87.6397 179.207 87.5948 178.124C87.5323 173.06 87.8763 167.996 87.5247 162.939C87.5543 162.227 87.3002 161.313 88.0022 160.807C89.3833 159.714 91.3755 160.071 93.0414 160.19C101.795 161.154 110.496 162.511 119.271 163.307C121.932 163.509 124.478 165.803 124.145 168.337C123.968 174.035 124.226 179.746 123.846 185.441C124.034 185.698 124.22 185.954 124.408 186.207C124.781 181.268 124.511 176.305 124.828 171.36C124.839 169.612 125.025 167.831 124.522 166.12C124.204 165.007 123.125 164.299 122.187 163.624C120.524 162.443 118.304 162.727 116.346 162.433C108.187 161.458 100.04 160.399 91.8739 159.461C90.3778 159.373 88.6451 159.252 87.3955 160.163C86.7898 160.574 86.5751 161.283 86.6124 161.947C86.7602 168.465 86.6573 174.98 86.7679 181.494C84.0999 180.813 81.3804 180.327 78.6533 179.875C77.6084 179.652 76.4255 179.517 75.6271 178.802C75.3719 178.036 75.4092 177.22 75.3686 176.43C75.3204 172.159 75.683 167.888 75.5351 163.617C75.5384 159.569 75.361 155.521 75.6162 151.476C80.157 152.211 84.7023 152.92 89.2836 153.402ZM97.786 163.206C103.757 164.022 109.713 164.919 115.706 165.591C117.62 165.931 119.94 165.911 121.271 167.423C121.304 167.794 121.33 168.168 121.352 168.543C118.215 168.327 115.122 167.774 112.034 167.241C104.961 166.225 97.8374 165.527 90.8093 164.272C90.2814 164.238 89.8302 164.009 89.4906 163.644C94.2834 164.063 98.994 165.061 103.771 165.611C109.447 166.485 115.3 166.647 120.779 168.347C120.931 168.07 121.083 167.79 121.23 167.514C119.704 166.191 117.49 166.289 115.551 165.982C108.264 165.186 101.015 164.12 93.7807 162.996C92.358 162.743 90.8805 162.811 89.4764 162.474C92.2693 162.173 95.0325 162.868 97.786 163.206ZM179.407 164.349C178.287 166.542 178.272 169.025 178.084 171.397C177.711 175.927 177.825 180.475 178.084 185.006C177.563 184.382 177.142 183.667 177.086 182.87C176.676 177.078 176.927 171.269 176.994 165.469C177.936 165.368 178.797 165.027 179.407 164.349ZM112.624 168.799C115.625 169.271 118.721 169.494 121.578 170.503C121.164 170.577 120.75 170.594 120.333 170.557C111.871 169.194 103.343 168.205 94.8672 166.92C93.1969 166.724 91.5376 166.444 89.9046 166.056C89.8784 165.891 89.8192 165.56 89.794 165.395C97.3391 166.866 105.035 167.551 112.624 168.799ZM185.159 167.2L185.148 167.439C185.355 167.524 185.762 167.689 185.969 167.77C184.742 167.753 183.482 167.763 182.366 168.29C181.989 168.415 181.609 168.533 181.224 168.641C181.487 168.29 181.771 167.959 182.041 167.615C182.484 167.527 182.931 167.466 183.382 167.436L183.338 167.149C183.948 167.166 184.554 167.183 185.159 167.2ZM104.141 169.602C109.436 170.466 114.775 171.083 120.066 171.964C120.61 172.014 121.053 172.294 121.437 172.625C110.792 171.073 100.113 169.663 89.4764 168.04C89.472 167.875 89.4611 167.551 89.4534 167.389C94.3086 168.334 99.2339 168.934 104.141 169.602ZM185.954 169.221C187.221 169.636 187.727 170.921 188.012 172.014C188.6 174.915 188.101 177.918 187.033 180.678C186.419 180.786 185.81 180.917 185.2 181.062C185.644 181.335 186.113 181.561 186.589 181.774C186.213 183.086 185.618 184.49 184.284 185.222C183.105 185.89 181.527 185.313 180.781 184.348C180.005 183.306 179.868 182.01 179.765 180.789C179.643 177.824 179.455 174.818 180.234 171.906C180.537 172.47 180.618 173.134 181.018 173.657C181.527 174.102 182.174 174.382 182.758 174.733C182.628 175.61 182.717 176.778 181.55 177.081C181.38 176.336 181.265 175.58 181.084 174.841C180.43 175.536 180.615 176.538 181.114 177.263C180.977 177.409 180.696 177.702 180.559 177.85C181.417 177.55 182.348 177.29 182.991 176.656C183.567 175.58 183.135 174.143 182.056 173.478C181.287 172.996 180.8 172.267 180.297 171.572C180.781 170.722 181.317 169.683 182.447 169.443C183.589 169.224 184.801 168.931 185.954 169.221ZM94.8113 170.263C103.616 171.366 112.417 172.527 121.159 173.994C121.189 174.153 121.248 174.467 121.274 174.622C115.481 173.613 109.646 172.804 103.82 171.974C99.2897 171.326 94.693 171.026 90.2146 170.088C89.7754 170.017 89.4348 169.747 89.1654 169.433C91.0864 169.45 92.9122 170.074 94.8113 170.263ZM98.5614 172.625C105.748 173.495 112.876 174.737 120.015 175.887C120.502 175.941 120.968 176.079 121.374 176.329C120.41 176.423 119.445 176.289 118.493 176.143C113.874 175.462 109.243 174.845 104.637 174.102C99.5778 173.252 94.4608 172.743 89.4096 171.856C89.4129 171.704 89.4205 171.397 89.4238 171.245C92.45 171.808 95.5057 172.21 98.5614 172.625ZM100.051 174.686C103.734 175.3 107.397 176.056 111.125 176.417C114.431 176.963 117.845 177.017 121.071 177.945C121.141 178.269 121.215 178.596 121.293 178.927C120.551 178.411 119.656 178.117 118.74 177.979C115.846 177.52 112.939 177.139 110.023 176.822C105.91 176.349 101.872 175.486 97.7783 174.895C94.9482 174.48 92.1214 174.038 89.2946 173.596C89.2836 173.478 89.2584 173.242 89.2431 173.121C92.8454 173.654 96.441 174.21 100.051 174.686ZM97.8079 176.103C102.696 177.088 107.637 177.817 112.588 178.495C114.937 178.738 117.277 179.035 119.601 179.429C120.277 179.612 120.935 179.848 121.449 180.296C121.271 180.249 120.916 180.151 120.739 180.104C120.136 179.979 119.526 179.865 118.928 179.723C112.417 179.082 105.937 178.198 99.5154 177.004C96.0675 176.44 92.657 175.607 89.1402 175.455C89.1654 175.236 89.1873 175.017 89.2103 174.801C92.059 175.33 94.9625 175.543 97.8079 176.103ZM101.566 178.704C106.454 179.544 111.421 179.935 116.287 180.877C117.92 180.985 119.556 181.066 121.193 181.109C121.182 181.295 121.164 181.663 121.153 181.845C121.097 181.71 120.99 181.433 120.938 181.295C119.649 181.305 118.359 181.214 117.07 181.177C117.084 181.545 117.121 182.273 117.14 182.641C118.275 182.948 119.431 183.191 120.594 183.39C120.694 183.488 120.887 183.683 120.986 183.781C119.413 183.508 117.838 183.225 116.253 183.005C109.791 182.459 103.446 181.201 97.073 180.145C95.2549 179.861 93.4105 179.493 91.5596 179.703C90.7326 179.821 89.9046 179.652 89.1511 179.332C89.2289 179.048 89.3023 178.768 89.3756 178.491C90.4074 178.63 91.4084 178.913 92.3284 179.355C95.8091 179.392 99.2383 180.134 102.666 180.63C106.857 181.494 111.139 181.858 115.373 182.459C114.942 181.97 114.701 181.184 113.936 181.032C111.545 180.482 109.063 180.408 106.639 179.999C102.19 179.392 97.7706 178.633 93.3371 177.945C92.5726 177.827 91.8815 177.476 91.139 177.28C90.3143 177.112 89.4282 177.193 88.6407 176.876C93.0337 176.801 97.246 178.174 101.566 178.704ZM95.0369 180.732C101.598 181.946 108.202 182.962 114.779 184.095C116.907 184.547 119.128 184.675 121.17 185.421C121.197 185.111 121.245 184.49 121.271 184.179C121.304 185.07 121.334 185.961 121.396 186.851C114.66 185.654 107.822 185.006 101.103 183.717C97.0029 183.022 92.9012 182.314 88.7776 181.74C88.8105 181.373 88.885 180.64 88.9222 180.276C90.932 180.742 93.0228 180.32 95.0369 180.732Z" fill="#64A06C"/>
<path d="M207.482 82.7008C200.566 80.1706 192.888 80.1267 185.583 80.9296C181.463 81.6111 177.31 82.1374 173.205 82.883C173.253 83.2844 173.301 83.6893 173.356 84.0941C180.587 83.804 188.092 84.1008 194.791 86.8537C195.385 87.0899 196.028 86.8773 196.631 86.7896C200.617 85.9496 204.623 85.1534 208.536 84.0604C208.244 83.5813 208.199 82.829 207.482 82.7008ZM205.273 83.3755C202.583 84.4011 199.671 84.8127 196.867 85.4908C195.012 86.0845 193.368 84.9645 191.642 84.5563C187.109 83.335 182.383 82.6536 177.646 82.8459C180.244 82.7413 182.734 81.9923 185.317 81.7899C188.395 81.5605 191.484 81.348 194.572 81.4795C198.197 81.5808 201.977 81.9417 205.273 83.3755Z" fill="#64A06C"/>
<path d="M163.539 93.3042C156.471 92.2617 149.314 91.6983 142.149 91.7051C139.245 91.7287 136.378 92.2786 133.625 93.0984C133.059 93.1928 132.776 93.6415 132.59 94.0936C134.686 93.9047 136.695 93.2502 138.809 93.1793C143.003 92.7711 147.204 93.3109 151.401 93.3582C154.091 93.348 156.752 93.8372 159.445 93.7596C156.962 94.0767 154.597 94.9404 152.074 95.0348C151.682 95.136 151.287 95.2271 150.888 95.3014C151.42 94.8763 152.022 94.5288 152.606 94.1611C151.9 94.1881 151.191 94.2184 150.489 94.2791C150.448 94.829 150.429 95.3823 150.429 95.9322C151.56 96.2797 152.787 96.4416 153.958 96.165C157.151 95.5105 160.243 94.4917 163.454 93.908C163.476 93.7562 163.521 93.456 163.539 93.3042Z" fill="#64A06C"/>
<path d="M110.772 99.5791C105.481 99.181 100.172 99.2553 94.8693 99.1169C94.8693 99.2485 94.8628 99.5117 94.8584 99.6432C95.6086 99.6432 96.3512 99.6399 97.0938 99.6803C96.3994 99.7073 95.7006 99.7006 94.9986 99.7006C93.9723 100.2 92.6526 99.9806 91.7402 100.706C90.3471 101.681 90.4062 103.482 90.6538 104.909C90.8936 106.124 92.0874 106.991 93.4105 107.065C98.4168 107.632 103.46 107.868 108.485 108.229C114.745 108.857 121.055 108.9 127.326 109.373C127.64 106.789 127.621 104.177 127.618 101.583C127.832 101.613 128.261 101.671 128.475 101.701C128.675 104.242 128.611 106.805 128.357 109.342C128.42 109.825 127.914 110.236 127.385 110.098C116.659 109.42 105.918 108.847 95.2176 107.851C93.8683 107.696 92.3645 107.622 91.3262 106.708C90.0295 105.544 89.9035 103.671 90.3581 102.15C90.817 100.77 92.2911 99.9941 93.7905 99.8456C94.5265 99.6027 93.4652 99.3025 93.1662 99.3396C89.9627 99.5758 88.5071 103.172 89.564 105.638C90.4391 107.318 92.4719 108.233 94.4378 108.347C99.8877 108.796 105.3 109.545 110.766 109.848C118.643 110.344 126.516 110.864 134.398 111.262C137.343 111.451 140.605 112.2 143.284 110.668C144.71 109.977 145.69 108.425 145.165 106.954C144.289 104.646 141.899 103.084 139.416 102.403C136.633 101.651 133.722 101.441 130.854 101.121C124.2 100.244 117.464 100.092 110.772 99.5791ZM115.173 101.178C114.446 102.389 114.261 103.739 114.305 105.105C114.796 105.574 115.148 106.289 115.904 106.418C116.455 106.104 116.341 105.429 116.477 104.93C116.711 103.735 117.15 102.568 117.139 101.34C118.747 101.455 120.358 101.482 121.957 101.627C121.975 101.745 122.009 101.974 122.024 102.089C122.965 102.356 122.656 103.361 122.889 104.012C123.616 103.331 124.03 102.106 125.327 102.251C124.625 103.094 123.793 103.843 123.107 104.697C122.612 105.497 123.284 106.886 122.128 107.278C122.216 106.384 122.685 105.513 122.449 104.609C122.131 103.678 121.72 102.764 121.185 101.917C120.032 102.028 118.72 102.43 117.757 101.61C117.693 102.858 117.065 104.015 117.072 105.27C117.058 105.969 116.884 106.991 115.927 107.048C114.925 107.116 114.505 106.191 114.309 105.466C114.128 105.945 113.994 106.441 113.728 106.89C112.372 107.062 111.113 106.286 110.54 105.2C110.532 104.056 110.389 102.872 110.795 101.769C110.795 102.227 110.721 102.69 110.795 103.148C111.43 103.064 111.933 102.106 112.576 102.514C113.747 102.946 113.373 104.683 112.218 104.866C111.645 104.643 111.39 104.032 110.987 103.621C110.884 103.688 110.677 103.827 110.573 103.894C110.414 105.071 111.616 106.357 112.937 106.171C114.212 104.815 113.803 102.858 113.91 101.209C111.988 100.939 110.064 100.73 108.12 100.659C110.481 100.672 112.842 100.854 115.173 101.178ZM109.262 101.88C109.835 103.081 109.816 104.461 109.72 105.743C109.605 106.498 108.456 106.853 108.049 106.104C107.85 105.156 107.758 104.184 107.695 103.219C107.554 102.538 108.334 102.089 108.283 101.428C107.739 101.394 107.022 101.566 107.081 102.194C107.052 103.449 107.296 104.69 107.492 105.925C106.989 106.714 105.733 107.102 104.956 106.387C103.966 105.507 104.905 104.225 104.986 103.179C105.05 103.614 105.104 104.046 105.174 104.481C105.138 104.974 105.093 105.47 105.109 105.965C105.582 106.498 106.786 106.461 106.734 105.628C106.568 104.14 106.69 102.649 106.79 101.161C107.61 101.344 108.659 101.259 109.262 101.88ZM103.398 102.184C104.119 103.412 103.705 104.856 103.778 106.181C103.63 106.158 103.331 106.111 103.18 106.087C103.121 104.731 103.907 102.868 102.489 101.914C102.126 101.789 100.83 101.418 101.206 102.14C102.785 102.737 102.463 104.434 102.508 105.689C101.994 106.057 101.303 106.431 100.685 106.003C99.511 105.179 99.9206 103.594 100.456 102.538C100.523 102.342 100.66 101.954 100.727 101.759C101.62 101.691 102.766 101.408 103.398 102.184ZM120.313 103.59C120.859 104.13 121.566 104.744 121.399 105.561C120.848 106.947 118.617 107.659 117.571 106.286C118.41 106.347 119.393 106.691 120.028 105.992C121.055 105.402 120.146 103.574 119.035 104.009C118.957 104.559 118.901 105.109 118.876 105.662C117.804 104.97 118.292 103.712 119.053 103C119.603 102.825 119.958 103.3 120.313 103.59ZM116.286 104.174C115.89 104.225 115.487 104.282 115.084 104.292C115.007 103.921 114.952 103.55 114.914 103.175C115.42 103.449 115.879 103.789 116.286 104.174Z" fill="#64A06C"/>
<path d="M108.431 105.888C110.164 105.081 109.869 102.662 108.236 101.887C108.309 103.219 108.394 104.552 108.431 105.888Z" fill="#64A06C"/>
<path d="M112.958 103.246C112.652 103.148 112.341 103.074 112.023 103.017C111.875 103.408 111.857 103.809 111.964 104.221C112.311 103.911 112.655 103.594 112.958 103.246Z" fill="#64A06C"/>
<path d="M102.352 104.555C102.159 103.911 101.723 102.511 100.763 103.152C100.526 104.083 100.375 105.308 101.502 105.807C101.871 105.439 102.318 105.092 102.352 104.555Z" fill="#64A06C"/>
<path d="M193.436 106.228C193.536 105.425 192.697 104.953 192.213 104.396C188.559 105.486 184.93 106.647 181.276 107.74C180.327 108.091 179.137 108.36 178.649 109.278C178.512 111.414 178.738 113.556 178.653 115.691C178.427 123.562 178.612 131.439 178.564 139.31C178.542 139.931 178.572 140.612 179.056 141.098C179.843 141.26 180.619 141.004 181.346 140.757C184.594 139.55 187.798 138.227 191.101 137.148C191.984 136.834 193.033 136.699 193.676 136.004C193.562 135.198 193.384 134.398 193.414 133.582C193.333 124.466 193.396 115.347 193.436 106.228ZM191.988 107.942C191.984 112.25 192.043 116.565 191.914 120.866C191.733 120.971 191.367 121.173 191.186 121.278C191.437 116.838 191.267 112.392 191.422 107.952C191.552 107.345 190.92 106.269 190.222 106.971C190.17 107.092 190.059 107.342 190.004 107.463C190.081 112.044 190.015 116.626 189.978 121.207C186.501 122.435 182.92 123.42 179.473 124.719C179.591 119.851 179.444 114.976 179.628 110.115C183.464 108.418 187.875 108.03 191.541 105.989C191.877 106.596 192.025 107.264 191.988 107.942ZM191.574 122.837C191.836 126.409 191.962 129.992 191.818 133.568C191.814 133.939 191.374 134.121 191.156 134.395C190.975 130.579 191.267 126.743 190.82 122.941C191.009 122.914 191.385 122.864 191.574 122.837ZM189.922 123.309C189.667 125.259 189.793 127.222 189.778 129.179C189.808 130.903 189.66 132.64 189.989 134.351C186.475 135.626 182.954 136.901 179.51 138.332C179.514 134.526 179.551 130.721 179.565 126.915C183.031 125.751 186.497 124.574 189.922 123.309ZM193.347 134.955C191.312 136.095 188.962 136.631 186.796 137.532C184.546 138.338 182.44 139.536 180.068 140.032C184.317 138.008 188.762 136.257 193.347 134.955Z" fill="#64A06C"/>
<path d="M244.565 121.49C243.829 121.666 243.97 122.32 243.973 122.863C244.151 122.87 244.509 122.884 244.69 122.894C244.657 122.425 244.616 121.956 244.565 121.49Z" fill="#64A06C"/>
<path d="M242.337 124.193C242.112 124.429 241.883 124.665 241.657 124.901C241.875 125.073 242.101 125.235 242.333 125.391C242.899 125.573 243.124 124.969 243.438 124.679C243.187 124.682 242.684 124.685 242.437 124.685L242.337 124.193Z" fill="#64A06C"/>
<path d="M230.467 148.48C229.702 147.562 228.756 146.658 227.437 146.493C226.735 146.534 226.339 147.131 225.878 147.535C226.302 147.795 226.727 148.055 227.16 148.308C227.215 149.03 226.879 149.63 226.243 150.072C226.351 149.401 226.096 148.919 225.408 148.747C225.549 149.458 225.837 150.137 226.055 150.832C225.209 150.778 224.418 150.882 224.289 151.763C224.544 151.705 225.057 151.591 225.316 151.533C226.864 151.769 226.883 150.062 227.721 149.327C227.544 149.084 227.367 148.844 227.189 148.608C227.559 148.311 227.928 148.021 228.301 147.731C228.616 148.058 228.9 148.413 229.199 148.757C229.063 148.922 228.789 149.253 228.652 149.418C228.893 149.944 228.841 150.45 228.501 150.936C228.649 151.101 228.941 151.429 229.088 151.594C229.809 151.031 230.858 150.575 230.603 149.529C230.164 149.634 229.284 149.843 228.845 149.948C229.269 149.354 229.838 148.885 230.467 148.48Z" fill="#64A06C"/>
<path d="M228.192 150.761C228.454 150.423 228.384 150.167 227.989 149.995C226.862 149.907 227.242 151.375 228.192 150.761Z" fill="#64A06C"/>
<path d="M227.822 151.28C227.397 151.482 226.958 151.654 226.503 151.796C226.562 152.039 226.68 152.525 226.74 152.764C227.316 152.714 227.896 152.687 228.476 152.67C228.399 152.386 228.243 151.82 228.166 151.536C228.048 151.688 227.804 151.988 227.686 152.137C227.719 151.924 227.789 151.496 227.822 151.28Z" fill="#64A06C"/>
<path d="M228.883 153.01C228.155 152.983 227.424 152.969 226.696 152.966C226.807 153.371 226.892 153.786 227.106 154.164C227.786 153.907 228.396 153.513 228.883 153.01Z" fill="#64A06C"/>
<path d="M82.1482 156.326C81.1581 155.51 79.0158 156.286 79.156 157.548C79.4473 158.391 80.1943 159.268 81.2106 159.386C82.9324 159.663 83.6596 157.008 82.1482 156.326Z" fill="#64A06C"/>
<path d="M196.729 158.472C196.71 158.358 196.677 158.132 196.659 158.017C195.69 158.54 194.674 159.012 193.799 159.67C194.878 159.505 195.824 159.005 196.729 158.472Z" fill="#64A06C"/>
<path d="M82.4997 167.898C80.065 167.095 77.0235 168.698 76.581 171.046C76.2108 173.013 77.2754 175.29 79.4068 176.022C81.3136 176.886 84.0922 176.376 84.9202 174.436C85.7471 172.102 84.7022 169.298 82.4997 167.898ZM83.1612 169.534C84.0999 170.59 84.7942 172.024 84.3178 173.39C83.8074 174.551 82.5216 175.232 81.2511 175.533C80.4637 175.33 79.5809 175.263 78.9413 174.75C77.6522 173.832 77.3455 172.085 77.9479 170.745C78.4462 169.578 79.7364 168.866 81.0146 168.583C81.8754 168.397 82.6476 168.971 83.1612 169.534Z" fill="#64A06C"/>
<path d="M82.2226 169.392C80.9959 168.245 78.8821 169.358 78.4802 170.684C78.2064 171.845 78.0508 173.184 78.823 174.227C79.3597 174.915 80.3421 175.053 81.1701 175.266C81.4023 175.151 81.8645 174.915 82.0934 174.8L82.0824 174.702C82.9729 174.176 83.9629 173.464 83.9739 172.398C83.9848 171.211 83.1536 170.155 82.2226 169.392ZM82.9619 172.061C83.3759 173.549 81.6794 175.043 80.0869 174.426C80.5447 174.156 80.9959 173.886 81.4505 173.623C81.5501 172.547 81.5797 171.413 80.9817 170.438C81.1252 171.366 81.3804 172.459 80.6783 173.262C80.2972 173.602 79.8799 173.64 79.4221 173.38C79.2709 172.108 79.6696 170.87 80.4308 169.811C81.813 169.551 82.7516 171.005 82.9619 172.061Z" fill="#64A06C"/>
<path d="M186.539 170.287C186.195 169.916 185.445 169.693 185.02 170.075C184.359 170.398 184.843 171.161 184.857 171.66C184.68 171.896 184.499 172.132 184.318 172.369C184.111 171.9 183.897 171.437 183.668 170.979C183.376 171.987 183.35 173.185 184.377 173.856C184.392 173.192 184.547 172.554 184.898 171.974C185.149 172.507 185.426 173.037 185.74 173.546C185.97 172.851 186.206 172.156 186.516 171.488C186.897 172.277 186.934 173.219 187.632 173.86C187.902 172.574 187.344 171.313 186.539 170.287Z" fill="#64A06C"/>
<path d="M183.114 170.023C182.881 169.264 182.105 170.215 181.843 170.485C181.229 171.413 181.813 172.472 182.634 173.097C182.586 172.047 182.848 171.035 183.114 170.023Z" fill="#64A06C"/>
<path d="M188.209 174.97C187.547 174.578 186.842 174.254 186.121 173.964C185.6 174.241 185.075 174.517 184.554 174.794C184.499 175.503 184.662 176.343 184.037 176.892C183.173 177.554 182.153 178.006 181.196 178.542C181.924 178.826 182.736 179.348 183.531 179.203C184.658 178.029 184.891 176.353 185.814 175.044C186.679 175.87 186.908 177.021 187.355 178.046C187.618 177.014 187.876 175.985 188.209 174.97Z" fill="#64A06C"/>
<path d="M135.325 174.275C134.05 173.684 132.376 173.715 131.264 174.602C128.271 176.92 128.693 181.963 132.184 183.701C135.514 185.212 139.485 181.902 138.965 178.758C138.498 176.903 137.305 175.061 135.325 174.275ZM134.989 175.162C135.872 175.958 136.636 176.906 137.066 177.975C137.637 179.494 136.658 181.572 134.789 181.774C133.647 181.855 132.052 181.94 131.49 180.796C130.625 179.284 130.925 176.93 132.561 176.012C132.276 177.368 131.367 178.664 131.608 180.108C131.534 180.681 132.206 180.958 132.701 181.076C133.847 181.376 135.302 181.312 136.053 180.351C136.762 179.551 136.499 178.468 136.049 177.625C134.844 177.392 133.691 177.776 132.531 178.013C132.93 177.264 133.385 176.548 133.788 175.806C134.183 176.14 134.578 176.471 134.933 176.842C135.173 176.754 135.649 176.575 135.89 176.488C135.447 176.059 134.985 175.648 134.497 175.263C133.984 175.314 133.467 175.344 132.949 175.354C133.115 174.889 134.452 174.679 134.989 175.162ZM135.617 179.895C135.136 180.634 134.087 180.678 133.252 180.553C132.354 180.293 132.742 179.322 132.646 178.697C133.607 178.428 134.571 178.141 135.587 178.161C135.746 178.714 136.042 179.372 135.617 179.895Z" fill="#64A06C"/>
<path d="M186.336 177.647C186.058 178.342 185.294 179.742 186.465 179.952C187.429 179.446 186.638 178.329 186.336 177.647Z" fill="#64A06C"/>
<path d="M186.305 180.199C185.88 179.875 185.621 179.939 185.536 180.398C185.958 180.718 186.216 180.654 186.305 180.199Z" fill="#64A06C"/>
<path d="M184.997 181.646C185.37 180.907 184.904 180.273 184.328 179.787C184.232 180.644 184.435 181.551 184.102 182.381C183.057 182.678 181.623 182.408 181.627 181.146C181.435 181.42 181.243 181.696 181.047 181.973C181.427 182.86 181.963 183.974 183.138 184.119C184.453 184.267 185.211 183.026 185.761 182.148C185.506 181.983 185.251 181.814 184.997 181.646Z" fill="#64A06C"/>
<path d="M183.378 180.276C182.461 180.111 181.527 180.07 180.599 179.966C180.673 180.35 180.817 181.116 180.891 181.501C181.323 181.072 181.759 180.644 182.195 180.222C182.277 180.745 182.258 181.295 182.45 181.804C182.798 182.091 183.289 182.037 183.714 182.108C183.662 181.491 183.618 180.863 183.378 180.276Z" fill="#64A06C"/>
<g clip-path="url(#clip0_104_317)">
<path d="M95.7029 59.5775C95.6088 59.3865 95.4755 59.2174 95.3118 59.0813C95.148 58.9452 94.9574 58.8451 94.7524 58.7874C94.547 58.7308 94.3319 58.718 94.1212 58.7499C93.9105 58.7818 93.7089 58.8577 93.5294 58.9726L50.0746 86.9134C49.7636 87.1136 49.5368 87.421 49.4373 87.7773C49.3378 88.1335 49.3725 88.5139 49.5347 88.8463L55.4986 101.061C58.114 106.417 74.1674 100.349 83.2405 95.9187C92.3133 91.4888 106.971 82.5612 104.356 77.2049L104.354 77.2022L95.7029 59.5775Z" fill="#64A06C"/>
<path d="M97.6921 63.6515L73.2632 75.5796L83.203 95.9365L83.2404 95.9185C92.0763 91.6042 106.201 83.0266 104.519 77.6338L97.6921 63.6515Z" fill="#64A06C"/>
<path d="M108.104 44.2422L67.5598 49.2923C63.2519 49.8283 59.1884 51.8124 56.1166 54.8798L27.2017 83.745C25.8102 85.1333 25.4663 87.173 26.3294 88.9405C27.192 90.7072 29.0118 91.6907 30.9624 91.4471L71.5059 86.397C73.6552 86.1274 75.7451 85.5041 77.691 84.5524C79.6381 83.6035 81.4148 82.3388 82.9489 80.8097L111.866 51.9441C113.257 50.5556 113.6 48.5168 112.737 46.7499C111.873 44.9826 110.055 43.9985 108.104 44.2422Z" fill="#37623D" fill-opacity="0.84"/>
<path d="M109.652 84.7033C109.473 84.7903 109.28 84.8414 109.082 84.8536C108.884 84.8658 108.686 84.8389 108.498 84.7744C108.31 84.7099 108.137 84.6091 107.989 84.4777C107.84 84.3463 107.719 84.187 107.632 84.0087L98.9735 66.2757C98.8354 65.9928 98.6123 65.7601 98.3355 65.6101C98.0586 65.4601 97.7419 65.4004 97.4294 65.4391L69.4681 68.9225C69.0706 68.9719 68.6698 68.8615 68.3536 68.6156C68.0374 68.3697 67.8318 68.0083 67.7818 67.6109C67.6796 66.7828 68.2645 66.0273 69.0945 65.9256L97.0558 62.4427C97.993 62.3258 98.9432 62.5047 99.7737 62.9544C100.604 63.404 101.273 64.102 101.688 64.9506L110.346 82.6837C110.433 82.8619 110.485 83.0555 110.497 83.2535C110.509 83.4514 110.482 83.6499 110.417 83.8374C110.353 84.025 110.252 84.198 110.121 84.3465C109.989 84.4951 109.83 84.6163 109.652 84.7033Z" fill="#2A94F4"/>
<path d="M115.648 93.5407L112.933 94.866C112.755 94.9531 112.562 95.0042 112.364 95.0164C112.166 95.0286 111.967 95.0017 111.78 94.9372C111.592 94.8726 111.419 94.7718 111.27 94.6404C111.122 94.509 111.001 94.3496 110.914 94.1713L106.938 86.0284C106.206 84.5293 106.827 82.7208 108.326 81.9888C109.826 81.2566 111.634 81.8789 112.366 83.3779L116.342 91.5209C116.429 91.6991 116.48 91.8927 116.492 92.0906C116.504 92.2886 116.478 92.487 116.413 92.6746C116.349 92.8622 116.248 93.0352 116.117 93.1838C115.985 93.3324 115.826 93.4537 115.648 93.5407Z" fill="#64A06C"/>
<path d="M102.853 74.2202C102.859 74.2097 102.868 74.1986 102.875 74.1882L101.053 70.4774C101.062 70.4993 101.056 70.5319 101.063 70.5546L102.853 74.2202Z" fill="#64A06C"/>
<path d="M70.6498 70.1326C73.6479 68.6687 75.4849 66.2668 74.753 64.7678C74.0211 63.2688 70.9973 63.2403 67.9993 64.7042C65.0012 66.168 63.1642 68.5699 63.8961 70.069C64.628 71.568 67.6518 71.5965 70.6498 70.1326Z" fill="#64A06C"/>
</g>
<path d="M54.024 221.816C54.5787 221.411 55.08 220.92 55.528 220.344C55.976 219.747 56.3493 219.448 56.648 219.448C56.968 219.448 57.128 219.917 57.128 220.856C57.128 221.773 56.8613 222.648 56.328 223.48C55.816 224.291 55.1333 224.973 54.28 225.528C52.5307 226.68 50.4613 227.256 48.072 227.256C45.1707 227.256 42.92 226.531 41.32 225.08C39.72 223.629 38.92 221.613 38.92 219.032C38.92 215.853 39.688 212.835 41.224 209.976C41.736 209.037 42.312 208.173 42.952 207.384C42.4613 206.808 42.0667 206.211 41.768 205.592C41.4907 204.952 41.352 204.472 41.352 204.152C41.352 203.576 41.5653 203.288 41.992 203.288C42.2907 203.309 42.632 203.512 43.016 203.896L44.008 204.856C44.264 205.112 44.5307 205.325 44.808 205.496C46.92 203.704 49.192 202.808 51.624 202.808C54.0773 202.808 55.6667 203.491 56.392 204.856C56.648 205.368 56.776 205.997 56.776 206.744C56.776 207.875 56.2853 208.824 55.304 209.592C54.3227 210.36 53 210.744 51.336 210.744C49.6933 210.744 47.9867 210.403 46.216 209.72C44.7013 212.301 43.944 215 43.944 217.816C43.944 221.72 45.5013 223.672 48.616 223.672C50.536 223.672 52.3387 223.053 54.024 221.816ZM47.752 207.736C48.84 208.099 50.024 208.28 51.304 208.28C52.584 208.28 53.224 207.928 53.224 207.224C53.224 206.392 52.7013 205.976 51.656 205.976C50.2267 205.976 48.9253 206.563 47.752 207.736ZM75.1705 219.448C75.5545 219.448 75.7465 219.939 75.7465 220.92C75.7465 221.453 75.5225 222.104 75.0745 222.872C74.6265 223.619 74.0398 224.312 73.3145 224.952C72.6105 225.571 71.8212 226.083 70.9465 226.488C70.0718 226.893 69.2185 227.096 68.3865 227.096C67.2558 227.096 66.4985 226.104 66.1145 224.12C65.5598 225.037 64.8345 225.795 63.9385 226.392C63.0425 226.968 61.8372 227.256 60.3225 227.256C58.8292 227.256 57.6238 226.787 56.7065 225.848C55.7892 224.909 55.3412 223.768 55.3625 222.424C55.3625 218.797 56.5678 215.939 58.9785 213.848C60.0025 212.973 60.9518 212.397 61.8265 212.12C62.7225 211.843 63.6612 211.704 64.6425 211.704C65.6238 211.704 66.4238 211.875 67.0425 212.216C67.3412 211.597 67.6825 211.288 68.0665 211.288C68.8132 211.288 69.5172 211.619 70.1785 212.28C70.8612 212.92 71.2025 213.528 71.2025 214.104C70.9038 214.808 70.4665 215.651 69.8905 216.632C69.7198 217.613 69.6345 218.989 69.6345 220.76C69.6345 222.531 69.8585 223.416 70.3065 223.416C70.8612 223.416 72.2052 222.307 74.3385 220.088C74.7225 219.661 74.9998 219.448 75.1705 219.448ZM60.0665 221.368C60.0665 223.011 60.6745 223.832 61.8905 223.832C63.1918 223.811 64.2692 223.117 65.1225 221.752C65.4212 221.283 65.6665 220.707 65.8585 220.024C65.8585 217.635 66.0718 215.587 66.4985 213.88C64.7705 214.221 63.2665 215.053 61.9865 216.376C60.7065 217.699 60.0665 219.363 60.0665 221.368ZM91.6835 217.272C91.6835 216.568 91.2782 216.216 90.4675 216.216C89.9128 216.216 89.2942 216.76 88.6115 217.848C87.9288 218.915 87.4382 220.067 87.1395 221.304V221.368C87.1395 222.093 87.2462 222.84 87.4595 223.608C87.6942 224.376 87.8115 224.909 87.8115 225.208C87.8115 225.933 86.9048 226.648 85.0915 227.352C84.8142 227.459 84.5688 227.512 84.3555 227.512C83.8222 227.512 83.4488 227.235 83.2355 226.68C83.0435 226.125 82.9475 225.379 82.9475 224.44C82.9475 223.48 82.9688 222.584 83.0115 221.752C83.0755 220.899 83.1288 220.12 83.1715 219.416C83.2355 218.691 83.2888 218.061 83.3315 217.528C83.3955 216.973 83.4275 216.525 83.4275 216.184C83.4275 215.459 83.0968 215.096 82.4355 215.096C81.7742 215.096 81.0062 215.875 80.1315 217.432C79.2568 218.968 78.8195 220.195 78.8195 221.112C78.8195 222.008 78.9262 222.84 79.1395 223.608C79.3742 224.376 79.4915 224.909 79.4915 225.208C79.4915 225.933 78.5848 226.648 76.7715 227.352C76.4942 227.459 76.2488 227.512 76.0355 227.512C75.5022 227.512 75.1288 227.235 74.9155 226.68C74.7235 226.125 74.6275 225.272 74.6275 224.12C74.6275 221.091 74.7448 218.904 74.9795 217.56C75.2995 215.576 76.0248 213.699 77.1555 211.928C77.5395 211.331 77.9555 211.032 78.4035 211.032C79.1075 211.032 79.7582 211.608 80.3555 212.76C80.5262 213.059 80.6542 213.336 80.7395 213.592C81.7635 212.312 82.9688 211.672 84.3555 211.672C85.2728 211.672 86.0942 211.981 86.8195 212.6C87.5448 213.197 87.9075 213.955 87.9075 214.872V215.224C89.2088 213.603 90.7982 212.792 92.6755 212.792C93.8275 212.792 94.7022 213.091 95.2995 213.688C95.8968 214.285 96.1955 215.021 96.1955 215.896C96.1955 216.771 96.1315 217.56 96.0035 218.264C95.8755 218.968 95.7262 219.629 95.5555 220.248C95.4062 220.867 95.2675 221.421 95.1395 221.912C95.0115 222.381 94.9475 222.755 94.9475 223.032C94.9475 223.288 95.0328 223.416 95.2035 223.416C95.5235 223.416 95.9182 223.213 96.3875 222.808C96.8568 222.403 97.3262 221.965 97.7955 221.496C98.2648 221.005 98.6915 220.557 99.0755 220.152C99.4808 219.747 99.7582 219.544 99.9075 219.544C100.206 219.544 100.356 219.907 100.356 220.632C100.356 222.125 99.5982 223.576 98.0835 224.984C96.5902 226.392 94.9902 227.096 93.2835 227.096C91.7475 227.096 90.9795 225.699 90.9795 222.904C90.9795 222.2 91.0968 221.229 91.3315 219.992C91.5662 218.755 91.6835 217.848 91.6835 217.272ZM104.789 213.592C105.899 212.333 107.317 211.704 109.045 211.704C111.52 211.704 113.088 212.707 113.749 214.712C113.941 215.309 114.037 215.971 114.037 216.696C114.037 218.317 113.504 219.917 112.437 221.496C111.392 223.075 110.123 224.141 108.629 224.696H109.013C110.571 224.696 112.149 224.12 113.749 222.968C114.773 222.243 115.573 221.496 116.149 220.728C116.747 219.939 117.195 219.544 117.493 219.544C117.792 219.544 117.941 219.885 117.941 220.568C117.941 221.763 117.429 222.968 116.405 224.184C114.869 225.933 112.907 226.957 110.517 227.256C108.789 227.448 107.563 227.48 106.837 227.352C106.112 227.224 105.557 227.064 105.173 226.872C104.341 226.445 103.925 225.805 103.925 224.952C103.925 224.483 104.021 224.056 104.213 223.672C105.899 223.672 107.179 223.032 108.053 221.752C108.928 220.472 109.365 218.872 109.365 216.952C109.365 216.483 109.195 216.067 108.853 215.704C108.512 215.32 108.053 215.128 107.477 215.128C106.923 215.128 106.315 215.373 105.653 215.864C104.992 216.355 104.459 216.973 104.053 217.72C103.669 218.445 103.317 219.171 102.997 219.896C102.677 220.6 102.421 221.496 102.229 222.584C101.888 224.547 101.493 227.021 101.045 230.008C100.619 233.016 100.352 234.627 100.245 234.84C100.139 235.075 99.9786 235.288 99.7653 235.48C99.5519 235.672 99.3279 235.768 99.0933 235.768C98.6666 235.768 98.3146 235.64 98.0373 235.384C97.2692 234.723 96.8212 234.211 96.6932 233.848C96.5652 233.507 96.5012 233.059 96.5012 232.504C96.5012 230.413 96.8532 227.48 97.5572 223.704C98.2613 219.928 99.4773 216.003 101.205 211.928C101.461 211.331 101.909 211.032 102.549 211.032C103.211 211.032 103.84 211.608 104.437 212.76C104.608 213.059 104.725 213.336 104.789 213.592ZM126.287 213.496C126.287 212.067 127.396 211.352 129.615 211.352C130.17 211.352 130.511 211.533 130.639 211.896C130.788 212.259 130.863 212.813 130.863 213.56C130.863 214.605 130.628 216.227 130.159 218.424C129.69 220.621 129.466 222.104 129.487 222.872C129.487 223.235 129.604 223.416 129.839 223.416C130.159 223.416 130.554 223.213 131.023 222.808C131.492 222.403 131.962 221.965 132.431 221.496C132.9 221.005 133.327 220.557 133.711 220.152C134.116 219.747 134.394 219.544 134.543 219.544C134.842 219.544 134.991 219.907 134.991 220.632C134.991 222.125 134.255 223.565 132.783 224.952C130.308 226.403 128.74 227.128 128.079 227.128C128.015 227.128 127.962 227.117 127.919 227.096C127.108 227.096 126.532 226.829 126.191 226.296C125.871 225.763 125.668 225.091 125.583 224.28C125.156 225.069 124.57 225.752 123.823 226.328C123.076 226.883 122.223 227.16 121.263 227.16C119.578 227.16 118.276 226.84 117.359 226.2C116.463 225.56 116.015 224.611 116.015 223.352C116.015 222.797 116.09 222.285 116.239 221.816C116.41 221.347 116.676 220.771 117.039 220.088L117.967 212.216C118.628 211.704 119.578 211.448 120.815 211.448C121.796 211.448 122.351 212.088 122.479 213.368C122.586 214.413 122.532 215.352 122.319 216.184C122.127 216.995 121.86 218.029 121.519 219.288C121.178 220.525 121.007 221.624 121.007 222.584C121.007 223.352 121.487 223.736 122.447 223.736C123.492 223.736 124.399 222.819 125.167 220.984C125.764 219.576 126.17 218.008 126.383 216.28C126.362 216.109 126.34 215.896 126.319 215.64C126.319 215.363 126.308 215.096 126.287 214.84C126.287 214.584 126.287 214.328 126.287 214.072V213.496ZM140.694 211.512C142.123 211.491 143.19 211.757 143.894 212.312C144.598 212.845 144.95 213.624 144.95 214.648C144.95 215.651 144.64 216.515 144.022 217.24C143.424 217.944 142.688 218.445 141.814 218.744C142.432 219.384 142.987 220.035 143.478 220.696C143.99 221.357 144.246 222.051 144.246 222.776C144.246 224.205 143.68 225.315 142.55 226.104C141.419 226.872 139.84 227.256 137.814 227.256C135.808 227.256 134.304 226.861 133.302 226.072C132.299 225.261 131.797 224.355 131.797 223.352C131.797 222.328 132.043 221.4 132.534 220.568C133.046 219.736 133.59 219.32 134.166 219.32C134.507 219.32 134.752 219.448 134.902 219.704C135.051 219.939 135.328 220.643 135.734 221.816C135.883 222.243 136.128 222.648 136.47 223.032C137.259 223.907 138.507 224.344 140.214 224.344C139.958 223.533 139.542 222.84 138.966 222.264C138.411 221.667 137.856 221.091 137.302 220.536C136.747 219.981 136.256 219.395 135.83 218.776C135.403 218.136 135.19 217.389 135.19 216.536C135.19 215 135.766 213.752 136.918 212.792C138.006 211.939 139.264 211.512 140.694 211.512ZM140.566 217.432C141.419 216.515 141.845 215.779 141.845 215.224C141.845 214.968 141.75 214.744 141.558 214.552C141.387 214.339 141.131 214.232 140.79 214.232C140.448 214.232 140.118 214.275 139.798 214.36C139.499 214.445 139.254 214.509 139.062 214.552C139.062 215.363 139.563 216.323 140.566 217.432ZM166.318 211.928C165.464 214.019 165.038 215.971 165.038 217.784C165.038 219.576 165.4 220.899 166.126 221.752C166.872 222.605 168.067 223.032 169.71 223.032C170.691 223.032 171.555 222.68 172.302 221.976C172.536 220.227 172.728 219.064 172.878 218.488C173.24 217.08 173.795 216.376 174.542 216.376C175.139 216.376 175.704 216.792 176.238 217.624C176.771 218.435 177.027 219.128 177.006 219.704C177.006 220.664 176.622 222.445 175.854 225.048C177.347 223.917 179.064 222.243 181.006 220.024C181.283 219.704 181.518 219.544 181.71 219.544C182.008 219.544 182.158 219.896 182.158 220.6C182.158 221.965 181.475 223.427 180.11 224.984C178.744 226.52 176.931 227.747 174.67 228.664C174.499 229.069 174.36 229.453 174.254 229.816C174.147 230.179 174.008 230.616 173.838 231.128C173.667 231.64 173.368 232.195 172.942 232.792C172.515 233.411 171.982 233.933 171.342 234.36C169.976 235.299 168.408 235.768 166.638 235.768C164.888 235.768 163.416 235.373 162.222 234.584C161.048 233.816 160.462 232.749 160.462 231.384C160.462 230.723 160.782 230.179 161.422 229.752C162.062 229.325 162.894 228.952 163.918 228.632C164.942 228.333 166.094 228.067 167.374 227.832C168.654 227.597 169.934 227.331 171.214 227.032C171.384 226.541 171.512 226.083 171.598 225.656C170.766 226.296 169.742 226.616 168.526 226.616C165.987 226.616 163.992 226.093 162.542 225.048C160.856 223.832 160.014 221.933 160.014 219.352C160.014 215.981 160.867 212.781 162.574 209.752C162.062 209.155 161.646 208.536 161.326 207.896C161.006 207.235 160.846 206.733 160.846 206.392C160.846 205.795 161.059 205.507 161.486 205.528C161.763 205.528 162.083 205.699 162.446 206.04C162.808 206.381 163.096 206.669 163.31 206.904C163.544 207.139 163.79 207.352 164.046 207.544C165.155 206.136 166.456 204.995 167.95 204.12C169.443 203.245 171.086 202.808 172.878 202.808C174.67 202.808 176.067 203.139 177.07 203.8C178.072 204.461 178.574 205.613 178.574 207.256C178.574 208.899 177.934 210.264 176.654 211.352C175.395 212.44 173.635 212.984 171.374 212.984C169.816 212.984 168.131 212.632 166.318 211.928ZM167.374 209.752C168.547 210.264 169.966 210.52 171.63 210.52C172.654 210.52 173.475 210.243 174.094 209.688C174.712 209.133 175.022 208.536 175.022 207.896C175.022 207.235 174.808 206.755 174.382 206.456C173.976 206.136 173.432 205.976 172.75 205.976C170.702 205.976 168.91 207.235 167.374 209.752ZM166.286 233.304C167.736 233.304 169.006 232.216 170.094 230.04C168.92 230.339 167.928 230.573 167.118 230.744C166.307 230.915 165.646 231.064 165.134 231.192C164.643 231.32 164.28 231.448 164.046 231.576C163.832 231.704 163.726 231.885 163.726 232.12C163.726 232.525 163.992 232.813 164.526 232.984C165.08 233.176 165.667 233.283 166.286 233.304ZM190.506 213.496C190.506 212.067 191.615 211.352 193.834 211.352C194.388 211.352 194.73 211.533 194.858 211.896C195.007 212.259 195.082 212.813 195.082 213.56C195.082 214.605 194.847 216.227 194.378 218.424C193.908 220.621 193.684 222.104 193.706 222.872C193.706 223.235 193.823 223.416 194.058 223.416C194.378 223.416 194.772 223.213 195.242 222.808C195.711 222.403 196.18 221.965 196.65 221.496C197.119 221.005 197.546 220.557 197.93 220.152C198.335 219.747 198.612 219.544 198.762 219.544C199.06 219.544 199.21 219.907 199.21 220.632C199.21 222.125 198.474 223.565 197.002 224.952C194.527 226.403 192.959 227.128 192.298 227.128C192.234 227.128 192.18 227.117 192.138 227.096C191.327 227.096 190.751 226.829 190.41 226.296C190.09 225.763 189.887 225.091 189.802 224.28C189.375 225.069 188.788 225.752 188.042 226.328C187.295 226.883 186.442 227.16 185.482 227.16C183.796 227.16 182.495 226.84 181.578 226.2C180.682 225.56 180.234 224.611 180.234 223.352C180.234 222.797 180.308 222.285 180.458 221.816C180.628 221.347 180.895 220.771 181.258 220.088L182.186 212.216C182.847 211.704 183.796 211.448 185.034 211.448C186.015 211.448 186.57 212.088 186.698 213.368C186.804 214.413 186.751 215.352 186.538 216.184C186.346 216.995 186.079 218.029 185.738 219.288C185.396 220.525 185.226 221.624 185.226 222.584C185.226 223.352 185.706 223.736 186.666 223.736C187.711 223.736 188.618 222.819 189.386 220.984C189.983 219.576 190.388 218.008 190.602 216.28C190.58 216.109 190.559 215.896 190.538 215.64C190.538 215.363 190.527 215.096 190.506 214.84C190.506 214.584 190.506 214.328 190.506 214.072V213.496ZM202.288 221.624L202.48 225.528C202.48 226.04 202.214 226.499 201.68 226.904C201.147 227.309 200.422 227.512 199.504 227.512C198.971 227.512 198.598 227.235 198.384 226.68C198.192 226.125 198.096 225.315 198.096 224.248C198.096 222.008 198.203 220.259 198.416 219C198.651 217.72 199.099 216.429 199.76 215.128C198.779 214.189 198.288 213.379 198.288 212.696C198.288 211.267 199.056 210.552 200.592 210.552C201.382 210.552 202.075 210.968 202.672 211.8C203.099 212.376 203.408 213.048 203.6 213.816C203.899 213.923 204.272 213.976 204.72 213.976C205.339 213.976 206.054 213.773 206.864 213.368L207.696 212.952C207.952 212.824 208.176 212.76 208.368 212.76C208.987 212.76 209.606 213.667 210.224 215.48C210.032 216.312 209.819 217.112 209.584 217.88C209.371 218.648 209.115 219.576 208.816 220.664C208.518 221.752 208.358 222.488 208.336 222.872C208.336 223.235 208.454 223.416 208.688 223.416C209.008 223.416 209.403 223.213 209.872 222.808C210.342 222.403 210.811 221.965 211.28 221.496C211.75 221.005 212.176 220.557 212.56 220.152C212.966 219.747 213.243 219.544 213.392 219.544C213.691 219.544 213.84 219.907 213.84 220.632C213.84 222.104 213.19 223.555 211.888 224.984C210.608 226.413 209.136 227.117 207.472 227.096C206.491 227.096 205.755 226.701 205.264 225.912C204.774 225.123 204.518 224.163 204.496 223.032C204.496 220.792 204.998 218.669 206 216.664C205.531 216.856 204.998 216.952 204.4 216.952C203.824 216.952 203.408 216.931 203.152 216.888C202.96 217.699 202.768 218.52 202.576 219.352C202.384 220.163 202.288 220.92 202.288 221.624ZM222.193 213.496C222.193 212.067 223.303 211.352 225.521 211.352C226.076 211.352 226.417 211.533 226.545 211.896C226.695 212.259 226.769 212.813 226.769 213.56C226.769 214.605 226.535 216.227 226.065 218.424C225.596 220.621 225.372 222.104 225.393 222.872C225.393 223.235 225.511 223.416 225.745 223.416C226.065 223.416 226.46 223.213 226.929 222.808C227.399 222.403 227.868 221.965 228.337 221.496C228.807 221.005 229.233 220.557 229.617 220.152C230.023 219.747 230.3 219.544 230.449 219.544C230.748 219.544 230.897 219.907 230.897 220.632C230.897 222.125 230.161 223.565 228.689 224.952C226.215 226.403 224.647 227.128 223.985 227.128C223.921 227.128 223.868 227.117 223.825 227.096C223.015 227.096 222.439 226.829 222.097 226.296C221.777 225.763 221.575 225.091 221.489 224.28C221.063 225.069 220.476 225.752 219.729 226.328C218.983 226.883 218.129 227.16 217.169 227.16C215.484 227.16 214.183 226.84 213.265 226.2C212.369 225.56 211.921 224.611 211.921 223.352C211.921 222.797 211.996 222.285 212.145 221.816C212.316 221.347 212.583 220.771 212.945 220.088L213.873 212.216C214.535 211.704 215.484 211.448 216.721 211.448C217.703 211.448 218.257 212.088 218.385 213.368C218.492 214.413 218.439 215.352 218.225 216.184C218.033 216.995 217.767 218.029 217.425 219.288C217.084 220.525 216.913 221.624 216.913 222.584C216.913 223.352 217.393 223.736 218.353 223.736C219.399 223.736 220.305 222.819 221.073 220.984C221.671 219.576 222.076 218.008 222.289 216.28C222.268 216.109 222.247 215.896 222.225 215.64C222.225 215.363 222.215 215.096 222.193 214.84C222.193 214.584 222.193 214.328 222.193 214.072V213.496Z" fill="#64A06C"/>
<defs>
<clipPath id="clip0_104_317">
<rect width="100" height="100" fill="white" transform="translate(10 59.8765) rotate(-26.0251)"/>
</clipPath>
</defs>
</svg>
